<mxfile host="65bd71144e">
    <diagram name="Page-1" id="e3a06f82-3646-2815-327d-82caf3d4e204">
        <mxGraphModel dx="1012" dy="1047" grid="1" gridSize="10" guides="1" tooltips="1" connect="1" arrows="1" fold="1" page="1" pageScale="1.5" pageWidth="1169" pageHeight="826" background="none" math="0" shadow="0">
            <root>
                <mxCell id="0" style=";html=1;"/>
                <mxCell id="1" style=";html=1;" parent="0"/>
                <mxCell id="rLBZL6tchbAXoIW9PWdh-1" value="" style="whiteSpace=wrap;html=1;fillColor=#E6E6E6;strokeColor=#36393d;" parent="1" vertex="1">
                    <mxGeometry x="200" y="140" width="1370" height="840" as="geometry"/>
                </mxCell>
                <mxCell id="6a7d8f32e03d9370-61" value="PeriHub" style="whiteSpace=wrap;html=1;fillColor=#FFFFFF;fontSize=20;strokeColor=#666666;verticalAlign=top;fontStyle=1;fontColor=#333333;fontFamily=Tahoma;" parent="1" vertex="1">
                    <mxGeometry x="497" y="160" width="850" height="660" as="geometry"/>
                </mxCell>
                <mxCell id="BHrpFycbJCAirwx-hvO8-56" style="edgeStyle=none;rounded=0;orthogonalLoop=1;jettySize=auto;html=1;exitX=0.5;exitY=0;exitDx=0;exitDy=0;entryX=0.5;entryY=1;entryDx=0;entryDy=0;shape=link;" parent="1" source="BHrpFycbJCAirwx-hvO8-42" target="BHrpFycbJCAirwx-hvO8-23" edge="1">
                    <mxGeometry relative="1" as="geometry"/>
                </mxCell>
                <mxCell id="BHrpFycbJCAirwx-hvO8-57" style="edgeStyle=none;shape=link;rounded=0;orthogonalLoop=1;jettySize=auto;html=1;exitX=0.5;exitY=1;exitDx=0;exitDy=0;strokeColor=#000000;" parent="1" source="BHrpFycbJCAirwx-hvO8-42" target="BHrpFycbJCAirwx-hvO8-23" edge="1">
                    <mxGeometry relative="1" as="geometry">
                        <mxPoint x="737" y="779" as="targetPoint"/>
                    </mxGeometry>
                </mxCell>
                <mxCell id="BHrpFycbJCAirwx-hvO8-2" value="" style="sketch=0;aspect=fixed;html=1;points=[];align=center;image;fontSize=12;image=img/lib/mscae/Docker.svg;" parent="1" vertex="1">
                    <mxGeometry x="1078.1000000000004" y="180" width="134.15" height="110" as="geometry"/>
                </mxCell>
                <mxCell id="BHrpFycbJCAirwx-hvO8-48" style="endArrow=classic;startArrow=classic;html=1;fontFamily=Helvetica;fontSize=11;fontColor=default;align=center;strokeColor=#000000;" parent="1" source="BHrpFycbJCAirwx-hvO8-7" target="BHrpFycbJCAirwx-hvO8-23" edge="1">
                    <mxGeometry relative="1" as="geometry"/>
                </mxCell>
                <mxCell id="BHrpFycbJCAirwx-hvO8-51" style="endArrow=classic;startArrow=classic;html=1;fontFamily=Helvetica;fontSize=11;fontColor=default;align=center;strokeColor=#000000;entryX=0;entryY=0.5;entryDx=0;entryDy=0;edgeStyle=elbowEdgeStyle;" parent="1" source="BHrpFycbJCAirwx-hvO8-7" target="BHrpFycbJCAirwx-hvO8-42" edge="1">
                    <mxGeometry relative="1" as="geometry">
                        <Array as="points">
                            <mxPoint x="467" y="480"/>
                        </Array>
                    </mxGeometry>
                </mxCell>
                <mxCell id="BHrpFycbJCAirwx-hvO8-55" style="endArrow=classic;startArrow=classic;html=1;fontFamily=Helvetica;fontSize=11;fontColor=default;align=center;strokeColor=#000000;edgeStyle=elbowEdgeStyle;" parent="1" source="BHrpFycbJCAirwx-hvO8-7" target="BHrpFycbJCAirwx-hvO8-26" edge="1">
                    <mxGeometry relative="1" as="geometry">
                        <mxPoint x="587" y="841.5" as="targetPoint"/>
                        <Array as="points">
                            <mxPoint x="467" y="730"/>
                        </Array>
                    </mxGeometry>
                </mxCell>
                <mxCell id="BHrpFycbJCAirwx-hvO8-49" style="endArrow=classic;startArrow=classic;html=1;fontFamily=Helvetica;fontSize=11;fontColor=default;align=center;strokeColor=#000000;entryX=0;entryY=0.75;entryDx=0;entryDy=0;exitX=1;exitY=0.5;exitDx=0;exitDy=0;exitPerimeter=0;edgeStyle=elbowEdgeStyle;" parent="1" source="BHrpFycbJCAirwx-hvO8-9" target="BHrpFycbJCAirwx-hvO8-23" edge="1">
                    <mxGeometry relative="1" as="geometry">
                        <mxPoint x="597" y="549" as="targetPoint"/>
                        <Array as="points">
                            <mxPoint x="547" y="740"/>
                        </Array>
                    </mxGeometry>
                </mxCell>
                <mxCell id="BHrpFycbJCAirwx-hvO8-52" style="endArrow=classic;startArrow=classic;html=1;fontFamily=Helvetica;fontSize=11;fontColor=default;align=center;strokeColor=#000000;entryX=0;entryY=0.75;entryDx=0;entryDy=0;exitX=1;exitY=0.5;exitDx=0;exitDy=0;exitPerimeter=0;edgeStyle=elbowEdgeStyle;" parent="1" source="BHrpFycbJCAirwx-hvO8-9" target="BHrpFycbJCAirwx-hvO8-42" edge="1">
                    <mxGeometry relative="1" as="geometry">
                        <mxPoint x="567" y="890" as="targetPoint"/>
                        <Array as="points">
                            <mxPoint x="517" y="570"/>
                        </Array>
                    </mxGeometry>
                </mxCell>
                <mxCell id="BHrpFycbJCAirwx-hvO8-26" value="" style="shape=image;verticalLabelPosition=bottom;verticalAlign=top;imageAspect=0;aspect=fixed;image=data:image/svg+xml,PHN2ZyB4bWxuczp4bGluaz0iaHR0cDovL3d3dy53My5vcmcvMTk5OS94bGluayIgeG1sbnM9Imh0dHA6Ly93d3cudzMub3JnLzIwMDAvc3ZnIiB4bWw6c3BhY2U9InByZXNlcnZlIiB2aWV3Qm94PSIwIDAgNzE2IDE4OCIgeT0iMHB4IiB4PSIwcHgiPiA8ZyBpZD0iTG9nb01hcmsiPiA8L2c+IDxnIGlkPSJLaXR3YXJlIj4gPGc+IDxwYXRoIGQ9Ik0yMjEuNSwxMTAuM2wtNi4yLDI5LjNoLTE1LjVsMTYuNC03Ny4xaDIwLjRjMTAuMiwwLDE3LjUsMS45LDIyLDUuOGM0LjUsMy45LDUuOSw5LjgsNC4yLDE3LjggYy0xLjYsNy42LTUuNCwxMy41LTExLjQsMTcuOGMtNiw0LjMtMTMuNCw2LjQtMjIuMiw2LjRIMjIxLjV6IE0yMjQuMSw5OC4yaDYuM2M0LjMsMCw3LjktMSwxMC44LTMuMXM0LjgtNS4xLDUuNi04LjkgYzAuNy0zLjUsMC02LjItMi4xLTguM2MtMi4yLTIuMS01LjMtMy4xLTkuMy0zLjFoLTYuM0wyMjQuMSw5OC4yeiIgZmlsbD0iIzE3MkMzNiIvPiA8cGF0aCBkPSJNMjk3LjEsMTMwLjNjLTMuMiw0LjEtNi42LDYuOS0xMC4xLDguNGMtMy41LDEuNS02LjgsMi4yLTkuOSwyLjJjLTYsMC0xMC40LTEuNi0xMy4zLTQuOSBjLTIuOS0zLjMtMy45LTcuMy0yLjktMTJjMS40LTYuNCw0LjctMTEuMywxMC4xLTE0LjZjNS40LTMuMywxMi42LTUsMjEuOC01aDkuMWwwLjMtMS4yYzAuOS00LDAuMy02LjktMS41LTguNiBjLTEuOS0xLjctNC45LTIuNS04LjktMi41Yy0zLjEsMC02LjMsMC42LTkuNywxLjhjLTMuNCwxLjItNi40LDIuNy05LDQuNmwyLjMtMTIuOWMyLjEtMSw1LjQtMiw5LjgtMi45YzQuNC0wLjksOC4xLTEuNCwxMS4yLTEuNCBjOC42LDAsMTQuNCwyLDE3LjQsNS45YzMsMy45LDMuNSwxMC4yLDEuNywxOC45bC0zLjIsMTUuMmMtMS4xLDUtMS44LDkuMy0yLjMsMTIuOWMtMC41LDMuNi0wLjcsNS40LTAuNiw1LjRoLTEzLjMgYy0wLjEsMC0wLjEtMC45LDAuMS0yLjdDMjk2LjEsMTM1LjEsMjk2LjUsMTMyLjksMjk3LjEsMTMwLjN6IE0yOTkuNywxMTQuM2wwLjItMWgtNi43Yy01LjUsMC4xLTkuNywxLTEyLjYsMi41IGMtMi45LDEuNS00LjcsMy45LTUuMyw3Yy0wLjUsMi4zLTAuMSw0LjEsMS4yLDUuNGMxLjMsMS4zLDMuNSwxLjksNi41LDEuOWM0LjMsMCw4LTEuNSwxMC45LTQuNiBDMjk2LjksMTIyLjMsMjk4LjgsMTE4LjYsMjk5LjcsMTE0LjN6IiBmaWxsPSIjMTcyQzM2Ii8+IDxwYXRoIGQ9Ik0zMzcuNiwxMzkuNmgtMTQuN0wzMzUsODIuN2gxMy4xbC0yLjgsMTMuMWMyLjUtNS4xLDUuNS04LjgsOS0xMWMzLjUtMi4zLDYuOS0zLjQsMTAuMi0zLjRsNC4xLDAuNCBsLTMuMiwxNC45Yy0wLjUtMC4zLTEuMy0wLjYtMi4zLTAuOGMtMS0wLjMtMi4zLTAuNC00LTAuNGMtNC4yLDAtNy43LDEuOC0xMC40LDUuNGMtMi43LDMuNi00LjgsOC41LTYuMSwxNC45TDMzNy42LDEzOS42eiIgZmlsbD0iIzE3MkMzNiIvPiA8cGF0aCBkPSJNNDAxLjUsMTMwLjNjLTMuMiw0LjEtNi42LDYuOS0xMC4xLDguNGMtMy41LDEuNS02LjgsMi4yLTkuOSwyLjJjLTYsMC0xMC40LTEuNi0xMy4zLTQuOSBjLTIuOS0zLjMtMy45LTcuMy0yLjktMTJjMS40LTYuNCw0LjctMTEuMywxMC4xLTE0LjZjNS40LTMuMywxMi42LTUsMjEuOC01aDkuMWwwLjMtMS4yYzAuOS00LDAuMy02LjktMS41LTguNiBjLTEuOS0xLjctNC45LTIuNS04LjktMi41Yy0zLjEsMC02LjMsMC42LTkuNywxLjhjLTMuNCwxLjItNi40LDIuNy05LDQuNmwyLjMtMTIuOWMyLjEtMSw1LjQtMiw5LjgtMi45YzQuNC0wLjksOC4xLTEuNCwxMS4yLTEuNCBjOC42LDAsMTQuNCwyLDE3LjQsNS45YzMsMy45LDMuNSwxMC4yLDEuNywxOC45bC0zLjIsMTUuMmMtMS4xLDUtMS44LDkuMy0yLjMsMTIuOWMtMC41LDMuNi0wLjcsNS40LTAuNiw1LjRoLTEzLjMgYy0wLjEsMC0wLjEtMC45LDAuMS0yLjdDNDAwLjUsMTM1LjEsNDAwLjksMTMyLjksNDAxLjUsMTMwLjN6IE00MDQuMSwxMTQuM2wwLjItMWgtNi43Yy01LjUsMC4xLTkuNywxLTEyLjYsMi41cy00LjcsMy45LTUuMyw3IGMtMC41LDIuMy0wLjEsNC4xLDEuMiw1LjRjMS4zLDEuMywzLjUsMS45LDYuNSwxLjljNC4zLDAsOC0xLjUsMTAuOS00LjZDNDAxLjIsMTIyLjMsNDAzLjIsMTE4LjYsNDA0LjEsMTE0LjN6IiBmaWxsPSIjMTcyQzM2Ii8+IDxwYXRoIGQ9Ik00OTIuOSw2Mi41aDE1LjRMNDY2LDEzOS42aC0xOWwtMTAuMS03Ny4xaDE2LjZsNi45LDYxLjFMNDkyLjksNjIuNXoiIGZpbGw9IiMxNzJDMzYiLz4gPHBhdGggZD0iTTUxNS44LDEzOS42SDUwMWwxMi4xLTU2LjloMTQuOEw1MTUuOCwxMzkuNnogTTUxNS4zLDcyLjNsMy0xNC4xaDE0LjhsLTMsMTQuMUg1MTUuM3oiIGZpbGw9IiMxNzJDMzYiLz4gPHBhdGggZD0iTTU3Ny43LDEzNi40Yy0yLjgsMS40LTUuOCwyLjUtOS4xLDMuM2MtMy4zLDAuOC02LjgsMS4yLTEwLjUsMS4yYy05LjksMC0xNi45LTIuNi0yMS4xLTcuNyBjLTQuMi01LjItNS4yLTEyLjYtMy4yLTIyLjJjMS45LTguOSw1LjgtMTYuMSwxMS43LTIxLjVjNS45LTUuNCwxMi45LTguMSwyMC45LTguMWM5LjYsMCwxNS44LDIuOSwxOC44LDguNyBjMyw1LjgsMy4yLDE0LjQsMC45LDI1LjZoLTM5LjRjLTAuMSw0LjEsMC41LDcuMSwxLjksOS4zYzIuMiwzLjQsNiw1LjEsMTEuNSw1LjFjNCwwLDgtMC44LDEyLTIuM2M0LTEuNSw2LjctMi43LDguMi0zLjYgTDU3Ny43LDEzNi40eiBNNTQ4LjgsMTA1LjZoMjUuNWMwLjctNC4zLDAuMi03LjYtMS40LTkuOWMtMS42LTIuMy00LjMtMy41LTgtMy41Yy00LjMsMC04LDEuNy0xMS4xLDUgQzU1MS44LDk5LjIsNTUwLjIsMTAyLDU0OC44LDEwNS42eiIgZmlsbD0iIzE3MkMzNiIvPiA8cGF0aCBkPSJNNjU1LjYsODIuN2wzLjYsNDIuNEw2ODAsODIuN2gxNC4xbC0yOS40LDU2LjloLTE3LjZsLTMtNDRsLTIxLjYsNDRoLTE2LjlsLTcuMS01Ni45aDE1LjdsMy43LDQyLjUgbDIwLjYtNDIuNUg2NTUuNnoiIGZpbGw9IiMxNzJDMzYiLz4gPC9nPiA8cG9seWdvbiBwb2ludHM9IjYxLjYsMTU0LjQgMjQuMiwxNTQuNCA1NC45LDM4IDkyLjQsMzgiIGZpbGw9IiNCRTIxMjgiLz4gPHBvbHlnb24gcG9pbnRzPSIxMDguMSwxNTQuNCA3MC43LDE1NC40IDEwMS41LDM4IDEzOC45LDM4IiBmaWxsPSIjMjQ5ODQ3Ii8+IDxwb2x5Z29uIHBvaW50cz0iMTU0LjcsMTU0LjQgMTE3LjMsMTU0LjQgMTQ4LDM4IDE4NS41LDM4IiBmaWxsPSIjMDY0RjhDIi8+IDwvZz4gPC9zdmc+;fillColor=#FFFF99;" parent="1" vertex="1">
                    <mxGeometry x="827.3299999999998" y="850" width="216.35" height="57" as="geometry"/>
                </mxCell>
                <mxCell id="BHrpFycbJCAirwx-hvO8-59" style="edgeStyle=none;shape=link;rounded=0;orthogonalLoop=1;jettySize=auto;html=1;entryX=0.007;entryY=0.9;entryDx=0;entryDy=0;strokeColor=#000000;entryPerimeter=0;exitX=1;exitY=0.5;exitDx=0;exitDy=0;exitPerimeter=0;" parent="1" source="BHrpFycbJCAirwx-hvO8-47" target="BHrpFycbJCAirwx-hvO8-78" edge="1">
                    <mxGeometry relative="1" as="geometry"/>
                </mxCell>
                <mxCell id="BHrpFycbJCAirwx-hvO8-70" style="endArrow=classic;startArrow=classic;html=1;fontFamily=Helvetica;fontSize=11;fontColor=#000000;align=center;strokeColor=#000000;entryX=0;entryY=0.25;entryDx=0;entryDy=0;exitX=1;exitY=0.5;exitDx=0;exitDy=0;exitPerimeter=0;edgeStyle=elbowEdgeStyle;" parent="1" source="BHrpFycbJCAirwx-hvO8-68" target="BHrpFycbJCAirwx-hvO8-42" edge="1">
                    <mxGeometry relative="1" as="geometry">
                        <Array as="points">
                            <mxPoint x="437" y="370"/>
                        </Array>
                    </mxGeometry>
                </mxCell>
                <mxCell id="BHrpFycbJCAirwx-hvO8-58" style="endArrow=classic;html=1;fontFamily=Helvetica;fontSize=11;fontColor=default;align=center;strokeColor=#000000;edgeStyle=none;entryX=0;entryY=0.5;entryDx=0;entryDy=0;startArrow=none;" parent="1" source="BHrpFycbJCAirwx-hvO8-82" target="BHrpFycbJCAirwx-hvO8-78" edge="1">
                    <mxGeometry relative="1" as="geometry"/>
                </mxCell>
                <mxCell id="BHrpFycbJCAirwx-hvO8-65" style="endArrow=classic;startArrow=none;html=1;fontFamily=Helvetica;fontSize=11;fontColor=default;align=center;strokeColor=#000000;edgeStyle=elbowEdgeStyle;entryX=1;entryY=0.25;entryDx=0;entryDy=0;exitX=0;exitY=0.5;exitDx=0;exitDy=0;exitPerimeter=0;" parent="1" source="oF-Cy2X0TJX1W_neIxIM-1" target="BHrpFycbJCAirwx-hvO8-23" edge="1">
                    <mxGeometry relative="1" as="geometry">
                        <Array as="points">
                            <mxPoint x="957" y="440"/>
                        </Array>
                    </mxGeometry>
                </mxCell>
                <mxCell id="BHrpFycbJCAirwx-hvO8-87" value="" style="group;fontColor=#000000;" parent="1" vertex="1" connectable="0">
                    <mxGeometry x="570" y="495" width="300" height="250" as="geometry"/>
                </mxCell>
                <mxCell id="BHrpFycbJCAirwx-hvO8-23" value="&lt;font color=&quot;#000000&quot;&gt;Backend&lt;/font&gt;" style="whiteSpace=wrap;html=1;fillColor=#f8cecc;fontSize=14;strokeColor=#b85450;verticalAlign=top;fontStyle=1;fontFamily=Tahoma;" parent="BHrpFycbJCAirwx-hvO8-87" vertex="1">
                    <mxGeometry width="300" height="250" as="geometry"/>
                </mxCell>
                <mxCell id="BHrpFycbJCAirwx-hvO8-11" value="" style="sketch=0;aspect=fixed;pointerEvents=1;shadow=0;dashed=0;html=1;strokeColor=none;labelPosition=center;verticalLabelPosition=bottom;verticalAlign=top;align=center;fillColor=#00188D;shape=mxgraph.mscae.enterprise.application_server2" parent="BHrpFycbJCAirwx-hvO8-87" vertex="1">
                    <mxGeometry x="10" y="15" width="34.4" height="40" as="geometry"/>
                </mxCell>
                <mxCell id="BHrpFycbJCAirwx-hvO8-39" value="" style="shape=image;verticalLabelPosition=bottom;verticalAlign=top;imageAspect=0;aspect=fixed;image=data:image/svg+xml,PHN2ZyB4bWxuczp4bGluaz0iaHR0cDovL3d3dy53My5vcmcvMTk5OS94bGluayIgeG1sbnM9Imh0dHA6Ly93d3cudzMub3JnLzIwMDAvc3ZnIiBwcmVzZXJ2ZUFzcGVjdFJhdGlvPSJ4TWlkWU1pZCIgdmVyc2lvbj0iMS4xIiB2aWV3Qm94PSIwLjE0NDU1MTA4MzQ0NTU0OSAwLjA3MjI3NTU0OTE3MzM1NTEgMjU1LjM4Mzg2NTM1NjQ0NTMgMjU0LjA1Mzk4NTU5NTcwMzEyIiBoZWlnaHQ9IjI1NC4wNTM5ODU1OTU3MDMxMiIgd2lkdGg9IjI1NS4zODM4NjUzNTY0NDUzIj4mI3hhOyAgICA8ZGVmcz4mI3hhOyAgICAgICAgPGxpbmVhckdyYWRpZW50IGlkPSJsaW5lYXJHcmFkaWVudC0xIiB5Mj0iNzguMjAwODUzOCUiIHgyPSI3OS42Mzg4MzI1JSIgeTE9IjEyLjAzOTM5MjglIiB4MT0iMTIuOTU5MzU5NCUiPiYjeGE7ICAgICAgICAgICAgPHN0b3Agb2Zmc2V0PSIwJSIgc3RvcC1jb2xvcj0iIzM4N0VCOCIvPiYjeGE7ICAgICAgICAgICAgPHN0b3Agb2Zmc2V0PSIxMDAlIiBzdG9wLWNvbG9yPSIjMzY2OTk0Ii8+JiN4YTsgICAgICAgIDwvbGluZWFyR3JhZGllbnQ+JiN4YTsgICAgICAgIDxsaW5lYXJHcmFkaWVudCBpZD0ibGluZWFyR3JhZGllbnQtMiIgeTI9Ijg4LjQyOTAzNzIlIiB4Mj0iOTAuNzQxNTMyOCUiIHkxPSIyMC41NzkxODEzJSIgeDE9IjE5LjEyNzUyNSUiPiYjeGE7ICAgICAgICAgICAgPHN0b3Agb2Zmc2V0PSIwJSIgc3RvcC1jb2xvcj0iI0ZGRTA1MiIvPiYjeGE7ICAgICAgICAgICAgPHN0b3Agb2Zmc2V0PSIxMDAlIiBzdG9wLWNvbG9yPSIjRkZDMzMxIi8+JiN4YTsgICAgICAgIDwvbGluZWFyR3JhZGllbnQ+JiN4YTsgICAgPC9kZWZzPiYjeGE7ICAgIDxnPiYjeGE7ICAgICAgICA8cGF0aCBmaWxsPSJ1cmwoI2xpbmVhckdyYWRpZW50LTEpIiBkPSJNMTI2LjkxNTg2NiwwLjA3MjI3NTU0OTEgQzYyLjA4MzU4MzEsMC4wNzIyODAxNzMzIDY2LjEzMjEyODgsMjguMTg3NDY0OCA2Ni4xMzIxMjg4LDI4LjE4NzQ2NDggTDY2LjIwNDQwNDMsNTcuMzE0NTExNSBMMTI4LjA3MjI3Niw1Ny4zMTQ1MTE1IEwxMjguMDcyMjc2LDY2LjA1OTg1MzIgTDQxLjYzMDcxNzEsNjYuMDU5ODUzMiBDNDEuNjMwNzE3MSw2Ni4wNTk4NTMyIDAuMTQ0NTUxMDk4LDYxLjM1NDk0MzggMC4xNDQ1NTEwOTgsMTI2Ljc3MTMxNSBDMC4xNDQ1NDY0NzQsMTkyLjE4NzY3MyAzNi4zNTQ2MDE5LDE4OS44Njc4NzEgMzYuMzU0NjAxOSwxODkuODY3ODcxIEw1Ny45NjQ5OTE1LDE4OS44Njc4NzEgTDU3Ljk2NDk5MTUsMTU5LjUxMjE0IEM1Ny45NjQ5OTE1LDE1OS41MTIxNCA1Ni44MDAxMzYzLDEyMy4zMDIwODkgOTMuNTk2ODM3OSwxMjMuMzAyMDg5IEwxNTQuOTU4NzgsMTIzLjMwMjA4OSBDMTU0Ljk1ODc4LDEyMy4zMDIwODkgMTg5LjQzNDIxOCwxMjMuODU5Mzg2IDE4OS40MzQyMTgsODkuOTgzMDYwNCBMMTg5LjQzNDIxOCwzMy45Njk1MDg4IEMxODkuNDM0MjE4LDMzLjk2OTUwNDEgMTk0LjY2ODU0MSwwLjA3MjI3NTU0OTEgMTI2LjkxNTg2NiwwLjA3MjI3NTU0OTEgTDEyNi45MTU4NjYsMC4wNzIyNzU1NDkxIEwxMjYuOTE1ODY2LDAuMDcyMjc1NTQ5MSBaIE05Mi44MDE4MDY5LDE5LjY1ODk0OTcgQzk4Ljk1NzIwNjgsMTkuNjU4OTQ1MiAxMDMuOTMyMjQyLDI0LjYzMzk4NDYgMTAzLjkzMjI0MiwzMC43ODkzODQ1IEMxMDMuOTMyMjQ2LDM2Ljk0NDc4NDQgOTguOTU3MjA2OCw0MS45MTk4MTkzIDkyLjgwMTgwNjksNDEuOTE5ODE5MyBDODYuNjQ2NDA3LDQxLjkxOTgyMzkgODEuNjcxMzcyMSwzNi45NDQ3ODQ0IDgxLjY3MTM3MjEsMzAuNzg5Mzg0NSBDODEuNjcxMzY3NCwyNC42MzM5ODQ2IDg2LjY0NjQwNywxOS42NTg5NDk3IDkyLjgwMTgwNjksMTkuNjU4OTQ5NyBMOTIuODAxODA2OSwxOS42NTg5NDk3IEw5Mi44MDE4MDY5LDE5LjY1ODk0OTcgWiIvPiYjeGE7ICAgICAgICA8cGF0aCBmaWxsPSJ1cmwoI2xpbmVhckdyYWRpZW50LTIpIiBkPSJNMTI4Ljc1NzEwMSwyNTQuMTI2MjcxIEMxOTMuNTg5NDAzLDI1NC4xMjYyNzEgMTg5LjU0MDgzOSwyMjYuMDExMDgxIDE4OS41NDA4MzksMjI2LjAxMTA4MSBMMTg5LjQ2ODU2NCwxOTYuODg0MDM1IEwxMjcuNjAwNjkyLDE5Ni44ODQwMzUgTDEyNy42MDA2OTIsMTg4LjEzODY5MyBMMjE0LjA0MjI1MSwxODguMTM4NjkzIEMyMTQuMDQyMjUxLDE4OC4xMzg2OTMgMjU1LjUyODQxNywxOTIuODQzNTg5IDI1NS41Mjg0MTcsMTI3LjQyNzIwOCBDMjU1LjUyODQ0LDYyLjAxMDg1NjYgMjE5LjMxODM2Niw2NC4zMzA2NTg5IDIxOS4zMTgzNjYsNjQuMzMwNjU4OSBMMTk3LjcwNzk3Niw2NC4zMzA2NTg5IEwxOTcuNzA3OTc2LDk0LjY4NjM4MzIgQzE5Ny43MDc5NzYsOTQuNjg2MzgzMiAxOTguODcyODUsMTMwLjg5NjQzNCAxNjIuMDc2MTMsMTMwLjg5NjQzNCBMMTAwLjcxNDE4MiwxMzAuODk2NDM0IEMxMDAuNzE0MTgyLDEzMC44OTY0MzQgNjYuMjM4NzQ1LDEzMC4zMzkxMzggNjYuMjM4NzQ1LDE2NC4yMTU0ODYgTDY2LjIzODc0NSwyMjAuMjI5MDM4IEM2Ni4yMzg3NDUsMjIwLjIyOTAzOCA2MS4wMDQ0MjI1LDI1NC4xMjYyNzEgMTI4Ljc1NzEwMSwyNTQuMTI2MjcxIEwxMjguNzU3MTAxLDI1NC4xMjYyNzEgTDEyOC43NTcxMDEsMjU0LjEyNjI3MSBaIE0xNjIuODcxMTYsMjM0LjUzOTU5NyBDMTU2LjcxNTc1OSwyMzQuNTM5NTk3IDE1MS43NDA3MjYsMjI5LjU2NDU2NCAxNTEuNzQwNzI2LDIyMy40MDkxNjIgQzE1MS43NDA3MjYsMjE3LjI1Mzc1OSAxNTYuNzE1NzU5LDIxMi4yNzg3MjcgMTYyLjg3MTE2LDIxMi4yNzg3MjcgQzE2OS4wMjY1NjMsMjEyLjI3ODcyNyAxNzQuMDAxNTk1LDIxNy4yNTM3NTkgMTc0LjAwMTU5NSwyMjMuNDA5MTYyIEMxNzQuMDAxNjE4LDIyOS41NjQ1NjQgMTY5LjAyNjU2MywyMzQuNTM5NTk3IDE2Mi44NzExNiwyMzQuNTM5NTk3IEwxNjIuODcxMTYsMjM0LjUzOTU5NyBMMTYyLjg3MTE2LDIzNC41Mzk1OTcgWiIvPiYjeGE7ICAgIDwvZz4mI3hhOzwvc3ZnPg==;fillColor=#FFFF99;" parent="BHrpFycbJCAirwx-hvO8-87" vertex="1">
                    <mxGeometry x="250" y="15" width="40.2" height="40" as="geometry"/>
                </mxCell>
                <mxCell id="BHrpFycbJCAirwx-hvO8-76" value="FastAPI" style="shape=image;verticalLabelPosition=bottom;verticalAlign=top;imageAspect=0;aspect=fixed;image=data:image/svg+xml,PHN2ZyB4bWxucz0iaHR0cDovL3d3dy53My5vcmcvMjAwMC9zdmciIHZpZXdCb3g9IjAgMCAxNTQgMTU0IiB3aWR0aD0iMjUwMCIgaGVpZ2h0PSIyNTAwIiBmaWxsPSJub25lIj48Y2lyY2xlIHI9Ijc3IiBmaWxsPSIjMDU5OThiIiBjeT0iNzciIGN4PSI3NyIvPjxwYXRoIGZpbGw9IiNmZmYiIGQ9Ik04MS4zNzUgMTguNjY3bC0zOC43NSA3MEg3Ny41bC0zLjg3NSA0Ni42NjYgMzguNzUtNzBINzcuNXoiLz48L3N2Zz4=;fillColor=#FFFF99;fontFamily=Tahoma;fontColor=#000000;" parent="BHrpFycbJCAirwx-hvO8-87" vertex="1">
                    <mxGeometry x="176.96000000000004" y="100" width="50" height="50" as="geometry"/>
                </mxCell>
                <mxCell id="BHrpFycbJCAirwx-hvO8-86" value="Model Database" style="sketch=0;aspect=fixed;pointerEvents=1;shadow=0;dashed=0;html=1;strokeColor=none;labelPosition=center;verticalLabelPosition=bottom;verticalAlign=top;align=center;fillColor=#00188D;shape=mxgraph.mscae.enterprise.database_generic;fontFamily=Tahoma;fontColor=#000000;" parent="BHrpFycbJCAirwx-hvO8-87" vertex="1">
                    <mxGeometry x="83.80499999999995" y="100" width="37" height="50" as="geometry"/>
                </mxCell>
                <mxCell id="BHrpFycbJCAirwx-hvO8-88" value="" style="group;fontStyle=1;fontSize=12;fillColor=#ffe6cc;strokeColor=none;fontColor=#000000;" parent="1" vertex="1" connectable="0">
                    <mxGeometry x="570" y="210" width="300" height="250" as="geometry"/>
                </mxCell>
                <mxCell id="BHrpFycbJCAirwx-hvO8-42" value="Frontend" style="whiteSpace=wrap;html=1;fillColor=#ffe6cc;fontSize=14;strokeColor=#d79b00;verticalAlign=top;fontStyle=1;fontFamily=Tahoma;fontColor=#000000;" parent="BHrpFycbJCAirwx-hvO8-88" vertex="1">
                    <mxGeometry width="300" height="250.00000000000003" as="geometry"/>
                </mxCell>
                <mxCell id="BHrpFycbJCAirwx-hvO8-3" value="" style="sketch=0;aspect=fixed;pointerEvents=1;shadow=0;dashed=0;html=1;strokeColor=none;labelPosition=center;verticalLabelPosition=bottom;verticalAlign=top;align=center;fillColor=#00188D;shape=mxgraph.mscae.enterprise.web_server" parent="BHrpFycbJCAirwx-hvO8-88" vertex="1">
                    <mxGeometry x="10" y="19" width="26.752" height="35.2" as="geometry"/>
                </mxCell>
                <mxCell id="BHrpFycbJCAirwx-hvO8-38" value="Vue" style="shape=image;verticalLabelPosition=bottom;verticalAlign=top;imageAspect=0;aspect=fixed;image=data:image/svg+xml,PHN2ZyB4bWxuczp4bGluaz0iaHR0cDovL3d3dy53My5vcmcvMTk5OS94bGluayIgeG1sbnM9Imh0dHA6Ly93d3cudzMub3JnLzIwMDAvc3ZnIiBwcmVzZXJ2ZUFzcGVjdFJhdGlvPSJ4TWlkWU1pZCIgdmVyc2lvbj0iMS4xIiB2aWV3Qm94PSIwIDAgMjU2IDIyMC44MDAwMDMwNTE3NTc4IiBoZWlnaHQ9IjIyMC44MDAwMDMwNTE3NTc4IiB3aWR0aD0iMjU2Ij4mI3hhOwk8Zz4mI3hhOwkJPHBhdGggZmlsbD0iIzQxQjg4MyIgZD0iTTIwNC44LDAgTDI1NiwwIEwxMjgsMjIwLjggTDAsMCBMNTAuNTYsMCBMOTcuOTIsMCBMMTI4LDUxLjIgTDE1Ny40NCwwIEwyMDQuOCwwIFoiLz4mI3hhOwkJPHBhdGggZmlsbD0iIzQxQjg4MyIgZD0iTTAsMCBMMTI4LDIyMC44IEwyNTYsMCBMMjA0LjgsMCBMMTI4LDEzMi40OCBMNTAuNTYsMCBMMCwwIFoiLz4mI3hhOwkJPHBhdGggZmlsbD0iIzM1NDk1RSIgZD0iTTUwLjU2LDAgTDEyOCwxMzMuMTIgTDIwNC44LDAgTDE1Ny40NCwwIEwxMjgsNTEuMiBMOTcuOTIsMCBMNTAuNTYsMCBaIi8+JiN4YTsJPC9nPiYjeGE7PC9zdmc+;fillColor=#FFFF99;fontFamily=Tahoma;fontColor=#000000;" parent="BHrpFycbJCAirwx-hvO8-88" vertex="1">
                    <mxGeometry x="173" y="100.00000000000001" width="50.9696" height="44" as="geometry"/>
                </mxCell>
                <mxCell id="BHrpFycbJCAirwx-hvO8-40" value="Nginx Server" style="shape=image;verticalLabelPosition=bottom;verticalAlign=top;imageAspect=0;aspect=fixed;image=data:image/png,iVBORw0KGgoAAAANSUhEUgAADi4AAAnACAMAAACLx88iAAAABGdBTUEAALGPC/xhBQAAAAFzUkdCAK7OHOkAAAAJcEhZcwAACxMAAAsTAQCanBgAAABjUExURUxpcQCVOACVOACWOACPOACTOACVOQCWOACPMACVOACUOQCVOQCWOACVNQCWNgCVOQCWOf///0Cwa/D58xCdRTCqXtDs22C+hKDYtYDLnMDlziCjUuDy53DEkLDewlC3d5DRqV4e7LoAAAAQdFJOUwCAYKAgQODwEMBwsNAwUJBDwhs7AAAgAElEQVR42uzBAQEAAACAkP6v7ggKAAAAAAAAAAAAAAAAAAAAAAAAAAAAAAAAAAAAAAAAAAAAAAAAAAAAAAAAAAAAAAAAAAAAAAAAAAAAAAAAAAAAAAAAAAAAAAAAAAAAAAAAAAAAAAAAAAAAAAAAAAAAAAAAAAAAAAAAAAAAAAAAAAAAAAAAAAAAAAAAAAAAAAAAAAAAAAAAAAAAAAAAAAAAAAAAAAAAAAAAAAAAAAAAAAAAAAAAAAAAAAAAAAAAAAAAAAAAAAAAAAAAAAAAAAAAAAAAAAAAAAAAAAAAAAAAAAAAAAAAAAAAAAAAAAAAAAAAAAAAAAAAAAAAAAAAAAAAAAAAAAAAAAAAAAAAAAAAAAAAAAAAAAAAAAAAAAAAAAAAAAAAAAAAAAAAAAAAAAAAAAAAAAAAAAAAAAAAAAAAAAAAAAAAAAAAAAAAAAAAAAAAAAAAAAAAAAAAAAAAAAAAAAAAAAAAAAAAAAAAAAAAAAAAAAAAAAAAAAAAAAAAAAAAAAAAAAAAAAAAAAAAAAAAAAAAAAAAAAAAAAAAAAAAAAAAAAAAAAAAAAAAAAAAAAAAAAAAAAAAAAAAAAAAAAAAAAAAAAAAAAAAAAAAAAAAAAAAAAAAAAAAAAAAAAAAAAAAAAAAAAAAAAAAAAAAAAAAAAAAAAAAAAAAAAAAAAAAAAAAAAAAAAAAAAAAAAAAAAAAgNmDAwEAAAAAIP/XRlBVVVVVVVVVVVVVVVVVVVVVVVVVVVVVVVVVVVVVVVVVVVVVVVVVVVVVVVVVVVVVVVVVVVVVVVVVVVVVVVVVVVVVVVVVVVVVVVVVVVVVVVVVVVVVVVVVVVVVVVVVVVVVVVVVVVVVVVVVVVVVVVVVVVVVVVVVVVVVVVVVVVVVVVVVVVVVVVVVVVVVVVVVVVVVVVVVVVVVVVVVVVVVVVVVVVVVVVVVVVVVVVVVVVVVVVVVVVVVVVVVVVVVVVVVVVVVVVVVVVVVVVVVVVVVVVVVVVVVVVVVVVVVVVVVVVVVVVVVVVVVVVVVVVVVVVVVVVVVVVVVVVVVVVVVVVVVVVVVVVVVVVVVVVVVVVVVVVVVVVVVVVVVVVVVVVVVVVVVVVVVVVVVVVVVVVVVVVVVVVVVVVVVVVVVVVVVVVVVVVVVVVVVVVVVVVVVVVVVVVVVVVVVVVVVVVVVVVVVVVVVVVVVVVVVVVVVVVVVVVVVVVVVVVVVVVVVVVVVVVVVVVVVVVVVVVVVVVVVVVVVVVVVVVVVVVVVVVVVVVVVVVVVVVVVVVVVVVVVVVVVVVVVVVVVVVVVVVVVVVVVVVVVVVVVVVVVVVVVVVVVVVVVVVVVVVVVVVVVVVVVVVVVVVVVVVVVVVVVVVVVVVVVVVVVVVVVVVVVVVVVVVVVVVVVVVVVVVVVVVVVYQ8OBAAAAACA/F8bQVVVVVVVVVVVVVVVVVVVVVVVVVVVVVVVVVVVVVVVVVVVVVVVVVVVVVVVVVVVVVVVVVVVVVVVVVVVVVVVVVVVVVVVVVVVVVVVVVVVVVVVVVVVVVVVVVVVVVVVVVVVVVVVVVVVVVVVVVVVVVVVVVVVVVVVVVVVVVVVVVVVVVVVVVVVVVVVVVVVVVVVVVVVVVVVVVVVVVVVVVVVVVVVVVVVVVVVVVVVVVVVVVVVVVVVVVVVVVVVVVVVVVVVVVVVVVVVVVVVVVVVVVVVVVVVVVVVVVVVVVVVVVVVVVVVVVVVVVVVVVVVVVVVVVVVVVVVVVVVVVVVVVVVVVVVVVVVVVVVVVVVVVVVVVVVVVVVVVVVVVVVVVVVVVVVVVVVVVVVVVVVVVVVVVVVVVVVVVVVVVVVVVVVVVVVVVVVVVVVVVVVVVVVVVVVVVVVVVVVVVVVVVVVVVVVVVVVVVVVVVVVVVVVVVVVVVVVVVVVVVVVVVVVVVVVVVVVVVVVVVVVVVVVVVVVVVVVVVVVVVVVVVVVVVVVVVVVVVVVVVVVVVVVVVVVVVVVVVVVVVVVVVVVVVVVVVVVVVVVVVVVVVVVVVVVVVVVVVVVVVVVVVVVVVVVVVVVVVVVVVVVVVVVVVVVVVVVVVVVVVVVVVVVVVVVVVVVVVVVVVVVVVVVVVVVVVVVVVVVVVWFvXvLjRSGoigq87Ax1OPOf7T9nVaU7iQF2NRaQzj+QmLrAgAAAAAAAAAAAAAAAAAAAAAAAAAAAAAAAAAAAAAAAAAAAAAAAAAAAAAAAAAAAAAAAAAAAAAAAAAAAAAAAAAAAAAAAAAAAAAAAAAAAAAAAAAAAAAAAAAAAAAAAAAAAAAAAAAAAAAAAAAAAAAAAAAAAAAAAAAAAAAAAAAAAAAAAAAAAAAAAAAAAAAAAAAAAAAAAAAAAAAAAAAAAAAAAAAAAAAAAAAAAAAAAAAAAAAAAAAAAAAAAAAAAAAAAAAAAAAAAAAAAAAAAAAAAAAAAAAAAAAAAAAAAAAAAAAAAAAAAAAAAAAAAAAAAAAAAAAAAAAAAAAAAAAAAAAAAAAAAAAAAAAAAAAAAAAAAAAAANCn+5C2WnOUWmtaZ4MAAACwDFuJv9R1MgwAAMA7m8b4XB2MAwAA4GPxE9lPqQAAAG9pSfG16pdUAACA9zPk+KfnYicAAIC3Mtf4H0XCCAAA8Ea+jBY/ukkYAQAA3kUq8Q2bhBEAAOAdPHJ8U5IwAgAAXN29xvdlCSMAAMClLWP8TJUwAgAAXNda4sdGCSMAAMA1zTl+oyQTAgAAXM9U47fyw4wAAADXsjzjFerdlAAAABcylHiRp6MaAAAAVzHf4nXKalAAAIArmLZ4reyoBgAAQPeWVOLlqqMaAAAAfRty7CJJGAEAAPo119hLGcwLAADQp2WMPd0kjAAAAD3aI1r8aJMwAgAA9OaRY39FwggAANCVe41jZAkjAABAN5ZnHKdKGAEAAPqwljjU6I9UAACA9s05jlaS2QEAANo2bXGG/DA9AABAu5YUZ6mOagAAALRqKHGip4QRAACgRfMtzlVWjwAAANCaaYzzZUc1AAAAmrKkEk3YJIwAAADtGHI0I0kYAQAA2nCv0ZIyeBIAAIDzLWO05iZhBAAAOFsr0eJHo4QRAADgTI8cbSoSRgAAgNNMNdqVJYwAAACnWJ7Rtnr3SAAAAIdbSzRv9EcqAADAseZb9KAkTwUAAHCcaYteZEc1AAAADrKk6El1VAMAAOAIQ4nOPCWMAAAAe5tr9KesHg4AAGBP0xh9ukkYAQAAdrOkEt3aJIwAAAD7ePxh716X3MSBAIxGILC48/5Pm0plszuT9Xh8wTZI57wCzY+u0lfdrocWJIwAAADbm7r16E6VzwgAALCtVK856CSMAAAAWzpytPhZLWEEAADYStOu+TgFHxQAAGALsVvz0s4+KgAAwKPSsuanm3xYAACAh1SnNUu1oxoAAAD3a8Y1V6fe5wUAALhPHNactY5qAAAA3CGFNXedoxoAAAC3qtq1AIuEEQAA4BZNt5bhVPnYAAAA14r1Wo5RwggAAHCdcFqLMkgYAQAAvje3a3GChBEAAOCyqVtL1EoYAQAALkj1WqpOwggAAPCV/rQWrPYiFQAA4JymXct2CoYAAADgb7FbaWeDAAAA8FEKdsXfCeNkGAAAAP5VnSyKfywSRgAAgN+a0ZL4MWHsjQQAAMCPH3GwIf6dMDqqAQAAFC8F71DPJYzRaAAAAEWrWqvheUHCCAAAlKtxPONCwlgZEAAAoEypthNeNEoYAQCAEokWvzdIGAEAgNLMosWrXqRKGAEAgKJE0eLVRzUkjAAAQDHSYgu85ajGZGQAAIAi9KLFG9VepAIAAPlrRIv3JIwGBwAAyFsc7H73JYyz4QEAAPKVgr3v/oTRUQ0AACBXlWjxIYuEEQAAyFEzWvgeTRh7YwQAAOQm1ra9LRLGxigBAAA5ScE71I0MEkYAACAfleMZGwoSRgAAIA9TZ8XbNmGsDBUAAHB8SbS4vVHCCAAAHJ1o8TlqCSMAAHBkjWjxaS9SJYwAAMBhRdHiU49qzEYMAAA4orTY6J6sm4wZAABwOL1o8RUJoxepAADAsTSjVe5FCaNhAwAAjiMO9rjXJYyOagAAAAeRgh3utQmjoxoAAMARVKLFl1skjAAAwN41jme8JWHsjR4AALBnsba5vckoYQQAAHYrBe9Q32iQMAIAAPs0t1a29woSRgAAYH8m0eIOjmpUBhEAANiXJFrcyVENCSMAALAnvWhxN2oJIwAAsBeNaHFXRzWCkQQAAPYgihZ3lzDOxhIAAHi3tNjO9pgwTkYTAAB4q0q0uNeE0VENAADgfZrRWrbfhLE3oAAAwHvEwU6274TRUQ0AAOANUrCP7T9hdFQDAAB4tcrxjENYJIwAAMArNY5nHCZhrIwrAADwKrG2hR3IKGEEAABeIziecTCDhBEAAHi+WbR4wBepQcIIAAA81yRaPOhRDQkjAADwRGmxdx33qIaEEQAAeJZetHhotRepAADAMzSixeMnjMYYAADYWhQtZpEwzkYZAADYUgo2rVwSxsk4AwAAm6lEixlZJIwAAMA2mtGKlVfC2BtqAADgcXGwX+WXMDqqAQAAPCgF71DzTBij4QYAAB5QOZ6RrSBhBAAA7jU5npF1wlgZcQAA4B6ptlFlbpQwAgAAtxMtlqCWMAIAALeZRYuFvEiVMAIAADeIosWCjmpIGAEAgCulxQ5V1lGNydADAABX6EWL5SWMXqQCAADfaUSLZSaMRh8AALgkDjanUhPG2fgDAABfScHWVHLC6KgGAABwXiVaLNwiYQQAAP6vGa1LEsbejwAAAHwWa7sSvxLGxs8AAAD8JwXvUPnHIGEEAAD+mB3P4IMgYQQAAH6ZOgsSnxPGym8BAAAk0SJnjmpIGAEAoHSiRc6rJYwAAFCyRrTIly9SJYwAAFCsKFrk4lGN2U8CAAAlSot9iO8SxsmPAgAAxelFi1yTMHqRCgAAZWlGixBXJox+FwAAKEccbEFcnzA6qgEAAIVIwQbEbQmjoxoAAFCCSrTIzRYJIwAA5K5xPIO7EsbKzwMAADmLtb2HO40SRgAAyFfwDpUHDBJGAADI09xaeHhMkDACAEB+JtEiGxzVkDACAEBmkmiRjY5qSBgBACAnvWiRzdQSRgAAyEUjWmTToxrBTwXwk707y5EjhQIoaghIkzF6/6vtD0s9utxVmTEAcc4eeAKJqwcAPUiiRXZPGFcHCwAAWlc2bxuOSBgXhwsAAJoWRYsclTBaqgEAAO3Ks0cNxyWMoyMGAABtSpMXDccmjJZqAABAg0rwmuH4hNFSDQAAaE20PINTBAkjAAC0JFuewWkJY3TgAACgFWXwhuFEs4QRAADaECzP4GSThBEAAOq3iha54EeqhBEAACq3iBa5xkPCCAAAFSubVwuXeUoYAQCgVqNokUsNfqQCAECNsmiR6xNGBxEAAGqTRItUkTCuDiMAANSkBO8UakkYFwcSAACqEUWLVGSTMAIAQB3y7IFCXQnj6FgCAMD10uB1Qn0Jo6UaAABwsRL8Q6VKU3I8AQDgQtHyDKoVJIwAAHCVxfIMqk4Yo0MKAABXKKJFajdLGAEA4HyiRVowSBgBAOBcq2iRRn6kShgBAOBESbRIOx4SRgAAOEnZvEBoynNxbAEA4ASjaJH2EkY/UgEA4GhZtEibCaPDCwAAR0qTdwetJoyrAwwAAEcpwZuDlhNGSzUAAOAYUbRI4zYJIwAA7C9bnkEHCePoKAMAwL7S4KVBF+bsOAMAwH5K8A+VbkwSRgAA2MtqeQZdCRJGAADYwyJapLuEMTrYAADwriJapEdPCSMAALxHtEivBgkjAAC8LosW6fhHqoQRAABelESL9O2xOuYAAPB1ZfOaoP+EcXHUAQDgi0bRIvdIGP1IBQCAr8izZwR3SRhHBx4AAD4rTd4Q3ClhtFQDAAA+pQTvB+6WMFqqAQAA/y9ansENbRJGAAD4vWx5BjdNGKPjDwAAH0uDVwO3NUsYAQDgI8HyDG5tkjACAMCvrKJFbi9IGAEA4N8W0SL8+PGQMAIAwD8U0SL89JQwAgDAX0bRIvxpkDACAMBPWbQIf/c9GAsAAPDtWxItwn8SxtVoAADg7krwMoBfJYyL8QAAwK1F0SJ8YLNUAwCA+8qzJwF8nDCOhgQAAPeUJu8B+H3CaKkGAAA3VIJ/qPD/CaOlGgAA3E20PAM+JUgYAQC4k2x5Bnw6YYxGBgAAd1EGLwD4glnCCADAPYgW4asmCSMAAP1bRYvwwo9UCSMAAJ1bRIvwmoeEEQCAjpXNnR9e9pQwAgDQq1G0CG8Z/EgFAKBHWbQI7yeMRgkAAL1Jk5s+7JEwrsYJAAA9KcEtH/ZKGC3VAACgH1G0CDvaJIwAAPQhz673sG/COBosAAC0Lw3u9rB/wmipBgAAjSvBP1Q4xCRhBACgZdHyDDhMkDACANCq5elCD0cmjNGYAQCgRUW0CEebJYwAALRHtAhnGCSMAAC0ZRUtwkk/UiWMAAA0JIkW4TwPCSMAAI0om/s7nOq5GDwAADRgFC3C+QmjH6kAANQuzy7ucEnCaPwAAFCzNLm1w1UJo6UaAABUqwQ3drgyYbRUAwCAOkXRIlxskzACAFCfbHkGVJAwjoYRAAB1SYN7OlRhljACAFCREvxDhWpMEkYAAGqxPlzQoSZBwggAQA0W0SJUlzBGowkAgKsV0SLU6ClhBADgWqJFqNUgYQQA4DpZtAgV/0gNhhQAANdIokWo22M1qAAAOF/Z3MWh/oRxMawAADhZFC1CGwmjpRoAAJwpzy7h0ErCOBpZAACcJU1u4NBSwmipBgAApyjB7RtaSxgt1QAA4HjR8gxo0CZhBADgWNnyDGg0YYwGGAAAx0mDOzc0a5YwAgBwlGB5BjRtkjACAHCEVbQIzQsSRgAA9raIFqEHDwkjAAC7KptbNnTiKWEEAGA/o2gROjL4kQoAwD6yaBH68j0YbAAAvC+JFqHDhHE13AAAeE8J7tXQZ8K4GHAAALwhihahW5uEEQCAV+XZhRp6ThhHYw4AgFekyW0aek8YLdUAAODLSvAPFe6QMCbjDgCAL4mWZ8BN/MHefS23jQRRAC0QmbFAWkwmaf//V643uNZJIogcznnUIzTV7MbMxQQijAAAlBe7PANmFGFcKHoAAJSThfpnmJW1CCMAAGUILcL8rEQYAQB4Ziu0CLM8kSrCCADAhyKhRZirRIQRAIB3ZTsdM8xYvlEGAQD4o6XQIsxc6EQqAAC/i4UWgTRQDAEA+Fm00icD3yRbBREAgP9lgR4Z+E/uUg0AAL5bCC0CP9iJMAIA8Ld4rTkGfpIulUYAAKJQZwz8JomVRwCAecsC51CBP1qJMAIAzNnC5RnAuwIRRgCAudrk2mHgA+lCoQQAmKNMaBF4Zi3CCAAwP0KLQBmhCCMAwLzEQotAyROpIowAADMSCS0C5SVbZRMAYB6yne4XeEm+UToBAGZgKbQIvCx0IhUAYOritbYXqCANFFAAgCmLVnpeoKLEpRoAAJOVBfpdoIbcpRoAANO0EFoEatqJMAIATE/s8gygvnSpnAIATEsU6nKBRqxFGAEAJiQLnEMFGrMSYQQAmIptor0FmhSIMAIATMFGaBFoWrJQXAEAxi4TWgTakIswAgCM21JoEWhJKMIIADBesdAi0J40UGYBAMYpEloE2pVslVoAgPHJdjpZoHX5RrkFABiZhdAi0InQpRoAAGMSr7WwQEfSpaILADAW0Ur/CnQocakGAMAoZIHeFehY7lINAIDhW7g8A+jBToQRAGDYYpdnAP1IF0owAMBwZaGOFejNWoQRAGCoApdnAL1aiTACAAzRVmgR6P1EaiDCCAAwNBuhRWAIEhFGAIBByXZ6VGAgchFGAIDhWAotAgMSOpEKADAMsdAiMCxpoDQDAPQvEloEhifZKs8AAP3KAl0pMEj5RokGAOjRQmgRGKydCCMAQF/itXYUGLB0qVADAPQhWulFgYFLXKoBANC5LHAOFRiBPFKwAQA6tXB5BjASgQgjAEB3Ni7PAMYjXSjbAADdyELdJzAqaxFGAIAuCC0C4xOKMAIAtG0rtAiM8kSqCCMAQKsioUVgrBIRRgCA1mQ7/SYwYvlGIQcAaMVSaBEYudCJVACA5sVCi8D4pYFyDgDQrGilywQmIdkq6QAAzckCHSYwGblLNQAAmrIQWgQmZSfCCADQhHittQQmJl0q7gAAdUWhvhKYoCRW4AEA6sgC51CBiVqJMAIAVLd1eQYwYYEIIwBANVGumQQmLXWpBgBAFb6HCkxfaIMRAOBlPnEDzMHavAgAYFoE+NOB1I2KDwBgWgT4w7zoC6kAAKZFAOdRAQBqWWgfgRnJlX0AgJI2mkdgVgKFHwCglCzROwLzEiv9AABl7HSOzXrbny6Xx/V6LX50/PaH8+Vy2u89Id5ZOP+sm+IX1+vjctm/eT7NSpR+AIASHEVtzKf9/ev1Vjx3vV7u+88eGN/t7+fjs1VzPN+9anAcFQCgW7m+sZF+//IoMyj+PDV+6/8/eXSWzvWFNXMxMjbEbRoAAM/F2sZu+/1f3R72jGa8IX16HF5dMYfHyUuGJoTKPwDAMzYX6/l8ehT1XS9fTABznBWrLhgTYxNsLwIAPCG5WGtWvB+LxjhmOLM96fOhznI5nH38pi7pRQCAJ0I9Y/W9oQZnRccMZ6aJxXM8eY61pH4AAAA+luoZq+4NFe043n0ydfJvGi6HZhbL7eL1Qh1bvwAAAB/Z6hgrtfv3W9EiE6NhsfSGtIGxBh+7AQD4kLOoFXxust1/95yhKcCwWHJg9FCdRgUAaEWiY3x5WDwX3Th/8bCn59TCvvTNSqkqjv0IAAC8T7841GHx32SaQ6nT8nZtZ6VcLZRqlks/AgAAxsXGDhIWHTu7XMPyKcOJ1EpC6UUAAONiQ+6HontuS5iKfavfR7q5hrGCPPcjAABgXGyk2z8W/XBbwiR8bXud2GB8XZL4EQAAMC42cJDwXPTHbQmj99bBy4ajBOPr/AgAABgXa/tyKHplYBy3Uyfr5+ATqcZFAADjYudbi4+idwZGB1Gf++pZGxcBAIyLnWr3GyXuY5/824Zrd4vk4aWCcREAwLjYoUsxFDdfSR2ht06/kSTAaFwEADAuTnJrqMR97O5hHN202HHs9eBGDeMiAIBxsaNm/1YMy9lpw1Hp/iNJ5kXjIgCAcbETp0MxNIe7f8uIFlAfK8SZZeMiAIBxsX33YoiOto9Mix8yLxoXAQCMi207FwPlG6mmRfOicREAwLhoWrTBONrcYn8LxPowLgIAGBdnOi3aYByDtx6Dr753Y1wEADAuznZadMGeadG8aFzkL/buLbdRIAig6BoaJ9g8jL3/VY41Un4SFGHsQHVxzha6pPQNuAAA5KJatACzQh87f4Kl9cUVuQgAIBePWou+wRhbu/d09M5ALgIAyMXD1qKNNyboN3enIBcBAOTi+11LJU43hxXSOcJ0eFtZLgIAyMWcd32PkCq275ob627kIgCAXMx9119q8gPGcD7aGLPROgq5CAAgF99716+qFn1RI6C7Z89yEQBALqbUl8p45zCYJs5sNE5DLgIAyMX36Up1TqLA4+l5o1eV5SIAgFzM+GTIDkyvonodVS4CAMjFOE+GxqIXSfQPB28qy0UAALmY8cmQXqxRG2sweiciFwEA5OKBX0X97+r0Qrj6R4JcBACQi15FDcav1EKMULjPsJxsu5GLAABy8Q26UjOPkYzQnM6pyEUAALn4sqEUvUi2EfJ4US4CAMjF1/VFL/KSS8Sx8HhRLgIAyMVXNaXoRfI9n/Z4US4CAMjFwz9cfISBr+x5uOjxolwEAJCLHi7qxWDirUX1eFEuAgDIRQ8Xv7TKYD9hN+v6KKdcBACQi4d/uPjQO8rdhP1s5+hs5CIAgFw8/MPFh4uz3Mk57lDcnI5cBACQi6sNJQ3rUXcyxZ2JyenIRQAAubjaJU8ulsZx+o/DN37SKhcBAOTiWlF3WlqPWo9r5Jmw7EYuAgDIxYQ/O7MetRJj6JFwPnIRAEAurtSmykXrUXfwGXskBickFwEA5GK+n51Zj1qFLvZEeBtVLgIAyMWEPzuzHtUDam+jykUAALnoqm89qgfUdqPKRQAAueiqbz1qHuGXJd2ckVwEAJCLGa/61qOGF/7DnX7OKhcBAOTiGlPGXLQedVNj9HEYnZFcBACQiyucUuai50neZ/YpDbkIACAXX/NZkvLxBO8z+/GiXAQAkIuvuGbNRYWwmXv8YeicklwEAJCLT7ukzUXrUbfS+y2rXAQAkIsZtWlzsYzWo26jhv8dOCW5CAAgFzNe9dd/TsPxbqGKL3f614FcBACQi89qMuei9ahm6EvjnOQiAIBcfNI5dS5aj7qFziTIRQAAueiqbz0qP91rGASrUeUiAIBcfNaUPBetR/17fQ2DMDknuQgAIBczXvWtRzVDvqQhFwEA5OLWxuy5aD3qnztV8W8D5yQXAQDk4pNKftajmqEH5yQXAQDkoly0FNMMyUW5CAAgF+Wi9ai7G+SiXAQAkIsZNYfIRetRzVAZnJRcBACQi3LRelQz9FPjpOQiAIBclIvWo5ohuSgXAQDkoly0HtUMyUW5CAAgF+Wi9ahmSC7KRQAAueiq/2Znpy0XkYsAAHJRLlqPaobkolwEAJCLcnFhL1qPKheRiwAAclEuzq1H1YtyEbkIACAX5aL1qGZILspFAAC5KBcX6py4XEQuAgDIRbloPaoZkotyEQBALspF61HNkFyUiwAAclEuWo9qhuSiXAQAkIuu+tajmiG5KBcBAOSiq771qGZILspFAAC56KpvPaoZkotyEQBALrrqW49qhuSiXAQAkIuu+tajmiG5KBcBAOSiq771qGZILspFAAC56KpvPSpyUS4CAMhFV33rUZGLchEAQC666luPilyUiwAAyMWj56L1qHJRLgIAIBfl4izrUeWiXAQAQC7Kxbn1qJ2uUJUAACAASURBVIPjl4tyEQAAuSgXrUeVi8hFAAC5KBeXmZy/XJSLAADIRbk4424A5KJcBABALspF61HlInIRAEAuykXrUc2QXJSLAAByUS5aj2qG5KJcBACQi3LRelQzJBflIgCAXHTVtx7VDMlFuQgAIBdd9a1HNUNyUS4CAMhFV33rUc2QXJSLAABy0VXfelQzJBflIgCAXHTVtx7VDMlFuQgAIBdd9a1HNUNyUS4CAMhFV33rUZGLchEAQC666luPilyUiwAActFV33pUsyAX5SIAAHJRLqoJuYhcBACQi3Jx4XpUn9OQi3IRAAC5KBetR5WL+CMAACAX5eJCvXGQi3IRAAC5KBdnXMyDXJSLAADIRbloPapclIsAAMhFuSgp5KKTkosAAHJRLlqPaobkolwEAJCLctF6VDMkF+UiAIBclIvWo5ohuSgXAQDkoqu+9ahmSC7KRQAAueiqbz2qGZKLchEAQC666usKM+RY5SIAgFx01bce1QzJRbkIACAXXfWtRzVDclEuAgDIRVd961GRi3IRAEAuuupbj4pclIsAAHLRVd96VKMhF+UiAIBcdNVnxs1syEW5CAAgF131sR5VLspFAADkolxcZrQeVS7KRQAAueiqz9znNEyHXJSLAABy0VUf61HlolwEAEAuysWFruZDLspFAAC56KqP9ahyUS4CACAX5aL1qHIRfwQAAOSiXLQe1QzJRbkIACAX5aL1qGZILspFAAC5KBetRzVDclEuAgDIRbloPaoZkotyEQBALrrqW49qhuSiXAQAkIuu+tajmiG5KBcBAOSiq771qGZILspFAAC56KpvPaoZkotyEQBALrrqW49qhuSiXAQAkIuu+tajIhflIgCAXHTVP7yzUZGLchEAQC666mM9qlyUiwAActFVXwku7EXrUeWiXAQAkIuu+sytR9WLclEuAgDIRVd9rEeVi3IRAEAu/mPvXo4bhoEgCqaAskmZ+lHKP0oHgDnQMg7SojsClr0HvMvIU5+Dzs5FLspFAAC56KmPeVS5KBcBAOSipz7mUeWiXAQAQC7KRfOochG5CAAgF+WieVQ3JBflIgCAXJSL5lHdkFyUiwAAclEumkd1Q3JRLgIAyEW5aB7VDclFuQgAIBc99c2juiG5KBcBAOSip755VDckF+UiAIBc9NQ3j+qG5KJcBACQi5765lHdkFyUiwAActFT3zyqG5KLchEAQC566ptHdTlyUS4CAMhFT30C86hyUS4CAMhFT33SPOrV7chFuQgAIBc99TGPKhflIgCAXPTU55jd8chFuQgAIBc99QmerkcuykUAALnoqY95VLkoFwEA5KKnPuZR5aJcBACQi576os88qlyUiwAAyEW5aB5VLiIXAQDkolw0j+qG5KJcBACQi3LRPKobkotyEQBALspF86huSC7KRQAAueipbx7VDclFuQgAIBc99c2juiG5KBcBAOSip755VDckF+UiAIBc9NQ3j+qG5KJcBACQi5765lHdkFyUiwAActFT3zyqG5KLchEAQC566iNF5KJcBACQi576HJxHXd2QXJSLAABy0VMf86hyUS4CAMhFT32OubghuSgXAQDkoqc+weaG5KJcBACQi576mEeVi3IRAEAueuqjR+SiXAQAkIue+phHlYtyEQAAr0W5aB5VLspFAADkolw0jyoXkYsAAHJRLppHdUNyUS4CAMhFuWge1Q3JRbkIACAX5aIocUP+M3IRAEAueuqbR3VDclEuAgDIRU9986huSC7KRQAAueipbx7VDclFuQgAIBc99c2juiG5KBcBAOSip755VDckF+UiAIBc9NRn+jKRi3IRAEAueupjHlUuykUAALnoqc8/3BY3JBflIgCAXPTUJ/ychhuSi3IRAEAueuoz9zyqXJSLAABy0VOfP7i7IbkoFwEA5KKnPsHDDclFuQgAIBc99Zl4HlUuykUAALnoqY95VLkoFwEA5KJcxDyqXJSLAAByUS5iHlUuykUAAOSiXDSPKheRiwAAclEumkd1Q3JRLgIAyEW5aB7VDclFuQgAIBflonlUNyQX5SIAgFyUi+ZR3ZBclIsAAHLRU988qhuSi3IRAEAueuqbR3VDclEuAgDIRU9986huSC7KRQAAueipzwzzqHJRLgIAyEVPfV7txcUNyUW5CAAgFz31CfOoixuSi3IRAEAueuoz1zyqXJSLAABy0VOf153dkFyUiwAActFTn+DHDclFuQgAIBc99ZlpHlUuykUAALnoqY95VLkoFwEA5KJcxDyqXJSLAAByUS6+u5t5VDckF+UiAIBc9NTvrd/mUd2QXJSLAABy0VO/0x7mUd2QXJSLAABy0VO/z8V2N4/qhuSiXAQAkIue+n0uts08qhuSi3IRAEAueur3udhO5lHdkFyUiwAActFTv8/FxTyqG5KLchEAQC566ve52MyjuiG5KBcBAOSip37IRfOobkguykUAALnoqZ9y0TyqG5KLchEAQC566qdcrDKPenVDclEuAgDIRU/9obloHtUNyUW5CAAgFz31Uy4WmUfd3ZBclIsAAHLRU39oLlaZR326IbkoFwEA5KKn/tBc/JQvnmgeVS7KRQAAuSgX3yIX20+NXlzdkFyUiwAActFTf2gumkd1Q3JRLgIAyEVP/ZSL7WIe1Q3JRbkIACAXPfX7XFxq/JzG7obkolwEAJCLnvpDc9E8qhuSi3IRAEAueuqnXDSP6obkolwEAJCLnvopF82juiG5KBcBAOSip37KRfOobkguykUAALnoqZ9y0TyqG5KLchEAQC566qdcNI/qhuSiXAQAkIue+unTzaO6IbkoFwEA5KJc/OBvLz+PKhflIgCAXJSLb5aL5lHdkFyUiwAAclEuRkXmUVc3JBflIgCAXPTUH5qL5lHdkFyUiwAAclEuJkXmUS9uSC7KRQAAueipPzQXq8yjbm5ILspFAAC56Kk/NBfbah7VDclFuQgAIBflYlBkHvXLDfkLy0UAALnoqT80F9vTPKobkotyEQBALsrFYDeP6obkolwEAJCLcrFnHtUNyUW5CAAgF+VicjWP6obkolwEAJCLcjEwj+qG5KJcBACQi3IxMY/qhuSiXAQAkItyMTGP6obkolwEAJCLcjExj+qG5KJcBACQi3IxMI/qhuSiXAQAkItyMTGP6obkolwEAJCLcjExj+qG5KJcBACQi3IxMY/qhuSiXAQAkItyMTGP6obkolwEAJCLcjGpMY96W9yQXJSLAABy0VN/aC4WmUc9uSG5KBcBAOSip/7QXDSP6obkolwEAJCLcjFaa/Ti3Q3JRbkIACAXPfWH5mKVedSHG5KLchEAQC566g/NxXY2j+qG5KJcBACQi3Ix2MyjuiG5KBcBAOSiXOyZR3VDclEuAgDIRbkYe9E8qhuSi3IRAEAuysXAPKobkotyEQBALsrFxDyqG5KLchEAQC7KxcQ8qhuSi3IR+GXvbpIShoIojG6Bwhf5CQnsf5WOHFi5zlrKdM7ZAVRbvm9yAUAuysXEPKobkotyEQBALsrFNHdjHtUNyUW5CAAgF+Vi6kXzqG5ILspFAAC5KBcD86huSC7KRQAAuSgXE/OobkguykUAALkoFxPzqG5ILspFAAC5KBeTHvOoH8MNyUW5CAAgFz31S3OxyzzqcENyUS4CAMhFT/3KXDSP6obkolwEAJCLcjFqMo96c0NyUS4CAMhFT/3SXOwyj3pxQ3JRLgIAyEVP/dJcPC3mUd2QXJSLAAByUS4G5lHdkFyUiwAAclEuJuZR3ZBclIsAAHJRLgbjYR7VDclFuQgAIBfl4pZ5VDckF+UiAIBclIvJ0zyqG5KLchEAQC7KxcA8qhuSi3IRAEAuysXEPKobkotyEQBALsrFxDyqXPTXLhcBAOSiXAzMo8pFf+1yEQBALsrFxDyqXEQuAgDIRbmYmEeVi8hFAAC5KBcT86hyEbkIACAX5WJiHlUuIhcBAOSiXEzMo8pF5CIAgFyUi0GTedTVDclFuQgAIBc99Utzscs86ssNyUW5CAAgFz31S3PRPKpcRC4CAMhFuRhdevTi5IbkolwEAJCLnvqludhlHnV2Q3JRLgIAyEVP/dJcPN3No8pF5CIAgFyUi1ujx89prG5ILspFAAC56KlfmovmUeUichEAQC7KxT1/5t3Mo8pFuQgAIBflYpNcNI8qF5GLAAByUS5G5lHlInIRAEAuysXEPKpcRC4CAMhFuRiYR5WLyEUAALkoFxPzqHIR/wQAAOSiXNzxB9/DPKpclIsAAHJRLnbKRfOoclEuAgAgF+ViZB5VLspFAADkolxMzKPKRbkIAIBclItBk3nUuxuSi3IRAEAuysVaTeZRr25ILspFAAC5KBcP+en/+TyqXJSLAAByUS62y8Uu86hnNyQX5SIAgFyUi7VePeZRJzckF+UiAIBclIu1VvOoclEuAgAgF+XilnlUuSgXAQCQi3Ixmc2jykW5CACAXJSLwWQeVS7KRQAA5KJcDMyjykW5CACAXJSLiXlUuSgXAQCQi3IxMY8qF+UiAAByUS4G5lHlolwEAEAuysXEPKpclIsAAMhFuZiYR5WLchEAALkoFxPzqHJRLgIAIBflYmIeVS7KRQAA5KJcTMyjykW5CACAXJSLQZN51E83JBflIgCAXJSLtcyjykW5CACAXJSLSZN51MUNyUW5CAAgF+VirSbzqE83JBflIgCAXJSLtW7mUeWiXAQAQC7KxeDaohcfww3JRbkIACAX5WIp86hyUS4CACAX5WLsRfOoclEuAgDgtSgXg6lHLy5uSC7KRQAAuSgXa5lHlYtyEQBALiIXE/OoclEuAgDIReRiYh5VLspFAAC5iFxMczfmUeWiXAQAkItyUS6mXjSPKhflIgCAXJSLcjEwjyoX5SIAgFyUi3IxMY8qF+UiAIBclItyMTGPKhflIgCAXJSLcjExjyoX5SIAgFyUi3Ixzd00mUcdbkguykUAALkoF2t70TyqXJSLAAByUS7KxaDJPOrNDclFuQgAIBflYq0m86gXNyQX5SIAgFyUi7UW86hyUS4CAMhFuSgXgx7zqB/DDclFuQgAIBflYi3zqHJRLgIAyEW5KBeD8TCPKhflIgCAXJSLcnHLPKpclIsAAHJRLsrF5GkeVS7KRQAAuSgX5WJgHlUuykUAALkoF+ViYh5VLspFAAC5KBflYmIeVS7KRQAAuSgX5WJgHlUuykUAALkoF+ViYh5VLspFAAC5KBflYmIeVS7KRQAAuSgX5WJiHlUuykUAALkoF+ViYh5VLspFAAC5KBflYmIeVS7KRQAAuSgX5WLQZB51lYvIRQAAuSgXazWZR33JReQiAIBclIu1zKPKRbkIACAX5aJcTC49enGSi8hFAAC5KBdrNZlHneUichEAQC7KxVp386hyUS4CAMhFuSgXt0aPn9NY5SJyEQBALsrFWuZR5aJcBACQi3JRLu74C3vnPKpclIsAAHJRLsrFk3lUuSgXAQDkolyUi5l5VLkoFwEA5KJclIuJeVS5KBcBAOSiXJSLgXlUuSgXAQDkolyUi4l5VLkoFwEA5KJclIs7/tbeNI8qF+UiAIBclIty8Zt5VLkoFwEA5KJclIuJeVS5KBcBAOSiXJSLiXlUuSgXAQDkolyUi0GTedS7XJSLAADIRblYq8k86lUuykUAAOSiXDzkV/f386hyUS4CAMhFuSgXf2gyj3qWi3IRAAC5KBdrvXrMo05yUS4CACAX5WKt1TyqXJSLAAByUS7KxS3zqHJRLgIAyEW5KBeT2TyqXJSLAAByUS7KxWAyjyoX5SIAgFyUi3IxMI8qF+UiAIBclItyMTGPKhflIgCAXJSLcjE5/DyqXJSLAAByUS7KxeTw86hyUS4CAMhFuSgXo6PPo8pFuQgAIBflolzMDj6PKhflIgCAXJSLcvEXx55H/WLvjm4aB4MojNawu/YmAULov0oKyA3YzgiJmXNKcAbp/14uclEuAgDIRbkoFx8ZPY8qF+UiAIBclIty8aHJ86hyUS4CAMhFuSgXH5o8jyoX5SIAgFyUi3LxscHzqHJRLgIAyEW5KBe/0GQe9SoX5SIAAHJRLtZqMo96k4tyEQAAuSgXa02dR5WLchEAQC7KRbn4tXOLXnxb5KJcBACQi8jFUk3mUf/LRbkIACAXkYvFvThyHlUuykUAALkoF+Xid9YevXiVi3IRAEAuIhdrTZxHlYtyEQBALspFufi9y7x5VLkoFwEA5KJclIsbzJtHlYtyEQBALspFubhl7mbcPKpclIsAAHJRLsrFTb04bR5VLspFAAC5KBfl4ibT5lHlolwEAJCLclEubjNsHlUuykUAALkoF+XiRrPmUeWiXAQAkItyUS5uNWoeVS7KRQAAuSgX5eLmuZtJ86hyUS4CAMhFuSgXt/fioHlUuSgXAQDkolyUi9s1mUe9yEW5CAAgF+WiXKzVZB71JBflIgCAXJSLcrHWmHlUuSgXAQDkolyUi7v0mEf9t8hFuQgAIBflolys1WQedZGLchEAQC7KRblYankbMY8qF+UiAIBclItycacZ86hyUS4CAMhFuSgX97pNmEeVi3IRAEAuykW5uNt1wDyqXJSLAAByUS7Kxf0GzKPKRbkIACAX5aJcPKD/PKpclIsAAHJRLsrFA/rPo8pFuQgAIBflolw8ov08qlyUiwAAclEuysVDus+jykW5CAAgF+WiXDym+TyqXJSLAAByUS7KxYN6z6PKRbkIACAX5aJcPKr1PKpclIsAAHJRLsrFo1rPo8pFuQgAIBflolw8rMk86odclIsAAHJRLsrFWo3nUeWiXAQAkItyUS4+occ86p9VLspFAAC5KBflYq0m86ivclEuAgDIRbkoF2u9NJ1HlYtyEQBALspFufiUpce/03iXi3IRAEAuykW5WKvpPKpclIsAAHJRLsrFGV975zyqXJSLAAByUS7KxWedOs6jykW5CAAgF+WiXHxax3lUuSgXAQDkolyUi89rOI8qF+UiAIBclIty8XkN51HlolwEAJCLclEuFug3jyoX5SIAgFyUi3Jx0CffPo8qF+UiAIBclItysUS3eVS5KBcBAOSiXJSLNZrNo8pFuQgAIBflolws0mseVS7KRQAAuSgX5WKRXvOoclEuAgDIRbkoF6s0mUc9y0W5CAAgF+WiXBz53TfNo8pFuQgAIBflolys02Qe9a9clIsAAHJRLsrFWk3mUVe5KBcBAOSiXJSLtd67zKPKRbkIACAX5aJcrNRkHvVFLspFAAC5KBflYq3XJvOoclEuAgDIRbkoF2utPeZuznJRLgIAyEW5KBdrNZlHlYtyEQBALspFuVjsQ8XJRbkIACAX5aJcDN5lnFyUiwAAclEuysV7TeZR5aJcBACQi3JRLhZrMo8qF+UiAIBclItysdgq5OSiXAQAkItyUS4G5lHlolwEAJCLclEuJuZR5aJcBACQi3JRLibmUeWiXAQAkItyUS4G5lHlolwEAJCLclEuJuZR5aJcBACQi3JRLibmUeWiXAQAkItyUS4m5lHlolwEAJCLclEuJuZR5aJcBACQi3JRLiZnQScX5SIAgFyUi3LxnnlUuSgXAQDkolyUi7EXzaPKRbkIACAX5aJcDFa9KBflIgCAXJSLcjEwjyoX5SIAgFyUi3IxuYg6uSgXAQDkolyUi4F5VLkoFwEA5KJclItp7sY8qlyUiwAAclEuysXUi+Zu5KJcBACQi3JRLgbmUeWiXAQAkItyUS4m5lHlolwEAJCLclEuJuZR5aJcBACQi3JRLibmUeWiXAQAkItyUS6muRvzqHJRLgIAyEW5KBdTL5q7kYtyEQBALspFuRiYR5WLchEAQC7KRbmYmEeVi3IRAEAuykW5mJhHlYtyEQBALspFuZiYR5WLchEAQC7KRbmYmEeVi3IRAEAuykW5GCxvCk8uykUAALkoF+XiPfOoclEuAgDIRbkoF5ObxJOLchEAQC7KRbkYXDWeXJSLAAByUS7KxcA8qlyUiwAAclEuysXEPKpclIsAAHJRLsrFwDyqXJSLAAByUS7KxcQ8qlyUiwAAclEuysXEPKpclIsAAHJRLsrFxDxqkdVfu1wEAJCLcrEX86huSC4CAMhFueipn5hHdUNyEQBALspFT/3APKobkosAAHJRLnrqJ+ZR3ZBcBACQi3LRUz8xj+qG5CIAgFyUi576iXlUNyQXAQDkolz01E/Mo7ohuQgAIBfloqd+Yh7VDclFAAC5KBc99YNFL7ohuQgAIBfloqd+YB7VDclFAAC5KBc99X/xT+WG5CIAgFzUIJ76P+wk+dyQXAQAkIty0VM/MI/qhuQiAIBclIue+smL6HNDchEAQC7KRU/9e+ZR3ZBcBACQi3LRUz8xj+qG5CIAgFyUi576v/j3ckNyEQBALsoPT/0fZh7VDclFAAC5KBc99RPzqG5ILgIAyEW56KmfmEd1Q3IRAEAuykVP/cA8qhuSiwAAclEueuon5lHdkFwEAJCLctFT/xf/aG5ILgLwyd7d5jYNBlEY3QJqauw4qeP9r5JfUMBXUDuKP8bnbGFG4n1IMgXkovLw1F+Z86h2SC4CAMhFueipnziPaofkIgCAXJSLnvqJ86h2SC4CAMhFueipHziPaofkIgCAXJSLnvrJzXlUOyQXAQDkolz01A8aAWiH5CIAgFyUi576gfOodkguAgDIRbnoqZ+MEtAOyUUAALkoFwkGDWiH5CIAgFyUi0w5j2qH5CIAgFyUiyTOo9ohuQgAIBflIonzqHZILgIAyEW5SOI8qh2SiwAAclEukjiPaofkIgCAXJSLJM6j2iG5CAAgF+UigfOodkguAgDIRblI4jyqHZKLAAByUS6SOI9qh+QiAIBclIskzqPaIbkIACAX5SKJ86h2SC4CAMhFuUjiPKodkosAAHJRLhI4j2qH5CIAgFyUi8RedB7VDslFAAC5KBcJGr1oh+QiAIBclIsEzqPaIbkIACAX5SLJVRHaIbkIACAX5SJBJwntkFwEAJCLcpEp51HtkFwEAJCLcpHYi87d2CG5CAAgF+UigfOodkguAgDIRblI4jyqHZKLAAByUS6SOI9qh+QiAIBclIskzqPaIbkIACAX5SKB86h2SC4CAMhFuUjsRedu7JBcBACQi3KRwHlUOyQXAQDkolwkcR7VDslFAAC5KBdJnEe1Q3IRAEAuykUS51HtkFwEAJCLcpHAeVQ7JBcBAOSiXCT24l0e2iG5CAAgF+UiU86j2iG5CAAgF+UiyUMf2iG5CAAgF+UiwYdAtENyEQBALspFAudR7ZBcBACQi3KRxHlUOyQXAQDkolwkcB7VDslFAAC5KBdJnEe1Q3IRAEAuykUS51HtkFwEAJCLcpHEeVQ7JBcBAOSiXCRxHtUOyUUAALkoF0mcR7VDchEAQC7KRQLnUe2QXAQAkItykcR5VDskFwEA5KJcJHEe1Q7JRQAAuSgXSZxHtUNyEQBALspFEudR7ZBcBACQi3KRxHlUOyQXAQDkolwkeNeLdkguAgDIRblI4DyqHZKLAAByUS5y4DnbIbkIACAXZYSn/spauYhcBACQi3KRoJOLyEUAALkoFwl6uYhcBACQi3KRqbOfR7UBchEAQC7KRbKTn0e1AHIRAEAuykWOPWw7JBcBAOSigvDUX1krF5GLAAByUS4SdHIRuQgAIBflIkEvF5GLAAByUS4ydeLzqIYvFwEA5KJc5B/Oex7V7OUiAIBclIsUmLgdkosAAHJRPHjqr6yVi8hFAAC5KBcJOrmIXAQAkItykaCXi8hFAAC5KBeZOud5VHOXiwAAclEu8j+3i1xELgIAyEW5yFQjF5GLAAByUS4StHIRuQgAIBflIsEoF/GPAACAXJSLBINclIsAAMhFucjU6c6jGrlcBACQi3KRLznbeVQTl4sAAHJRLvI1jVyUiwAAyEW5SNDKRbkIAIBclIsEo1yUiwAAyEW5SDDIRbkIAIBclItMnek8qmnLRQAAuSgX+boTnUc1bLkIACAX5SIzNHJRLgIAIBflIkErF+UiAAByUS4SjHJRLgIAIBflIsEgF+UiAAByUS4ydZLzqAYtFwEA5KJcZKZznEc1Z7kIACAXZ36y5KnPt+YEvXgxZrkIACAXZzrEU783p9c6wXlUOyQXAQDkolxkgatclIsAAMjFv/RHeOoP5vRqXfVcHM1YLgIAyMWKuXg1p5f/iLX6eVQ7JBcBAOTiXIf4I+0f5vT6Xix+7uZhxHIRAEAuVvzR2ps5vV7x86iNCctFAAC5ONMh/vDizZxWUPs8qvnKRQAAuTjXzVOfI33SvNB345WLAABycTZ/A4GfCp9H7UxXLgIAyMXZDnAadTSldRQ+j+paklwEAJCL8x3gNGprSmv1YtlzNy7dyEUAALk438OlG36peh71YrRyEQBALs5389TnU9HzqIPJykUAALm4wN1Tn081z6P66aJcBACQi0vs/hymny7aB99nlosAAHLRjxc99bdW8Tzq3VjlIgCAXFyUB576/LEQ9c7djKYqFwEA5OIig6c+v6t3HtWf0ZCLAABycZkPT32O9f1kH1DLRQAAubiOm6c+h/ofBHdR5SIAgFz0bVTfRd1IrfOojiXJRQAAubjUrv80u++ibqLSeVR/uFMuAgDIxcX2fArzu/FssxP3Orn4ZpxyEQBALlb86mFrOtuocx7Vr1/lIgCAXHwmDXb71L+8m85GypxH9T8OchEAQC4+o9/rU78zm81cfbgoFwEA5CL7PXbjpqXvKD/papByEQBALj5lp4dN3LTcVIXzqL7OLBcBAORizY8X3bTc1HuBXvTLRbkIACAXS3682JvLxr14+D+n4ZeLchEAQC7W/HjRh4tbO/yf03iYoVwEAJCLFT9e9OGiXrRCchEAQC76eDFoTEUvuqwrFwEA5OL2frB3r0uq4lAYQAsFAW9dBdPaery9/1POPxbZMQAAHDRJREFU/Jhfp+zWVi5JWOsRlAr7I9nZwV1rYuaivGiIhrgIACAuhqAxAYG08uLOnycuAgCIi90IbCr72T8iLzrNLC4CAIiLQfintTPE3bx4chRVXAQAEBenbW9niPtfEnYRpkW3ooqLAADiYoeOdoZIJS+2bkUVFwEAxMUkj6M6ihqar9jiYuM/ExcBAMTFLl0dReUbB42L4iIAgLhoD8mtqNyxj+mCVEM7xUUAAHExzR61iz8iRBFdkLoztFNcBAAQF7uPBK1an+8+JhylRXERAEBc1L445pWWGhc1MHqCxEUAAHExQOexi/2r/yBcTSstiosAAOLidI183c3ePxD0gdSLtCguAgCIi9M1aoeaKy2D335upUVxEQBAXJzsBtJOWuR7f3bSorgIACAuyovSInccpEVxEQBAXJQXpUXubTAGOlLDBA1xEQBAXEw0L0qLOhjfcpQWxUUAAHExzbwoLUb1hHwFlxY9QOIiAIC4mGheVOxHpgnsyhsjWMRFAABxcSgD7x4d/OLR2Qd0IvXkkhtxEQBAXBzOwdYQD/agD6EExou2RXERAEBcTHPzyPyDaANjEC2M7dk/IS4CAIiLw/o8mX/AA3/GD4zHP/4GcREAQFwcfO/oMkS1f/NDC4y2FsVFAABxMTb9z9drG79y/IFxvB7Gi61FcREAQFwc60Dqzh0lPN6HHunSm5OPDeIiAIC4OKI+b0htr37fVOyHn8PYGr8iLgIAiIsjHzU89lXuf9laTEkz9KxOj4+4CAAgLo7u2ssVqTsHCZM7k3o+DRYWvzQtiosAAOJioq1pp72fNUWfg1x70x6ExfeUpZcAAIC42FlgvHVc7jtImKx93/NXTp6et9W1lwAAgLjYnQ6nJQiLqX9c6DMxHu1Li4sAAOJiqkdST3thcQIPy7WXU6mnm1OoncgyLwEAAHGx63OGb09LuJidMRmfh26Ha7RfHp6ubLdeAgAA31spGF+MALf2naYze0NT22S8dRQZT7Jil6rKSwAA4HtLBePLXjxmeLp9+u0mGhnfHd15PHt2OrX2CgAA+EmuYnxvj3Gn3ucXmvPXi5nxeDCgs3NLrwAAgB/VSsaB9oxa9T7/f2W4Hi6/CI3t8bb3laEXuTcAAMCPZkrGLur//eH4wz7j8XK46lbkrw8Nzf5wOx5/ONF8+u/B2Tcu0O3NygsAAOCBhaKxu/q/uR7+cm1sKfLoa0PTNOe/HxvPTf8K6z8AwAO2F4Epqi3/AAAP2V4EbC4CAHCH7UVgenQuAgA8w+WowNSUrkUFAHhGXiodgWkxcxEA4DlLpSMwKe65AQB41krxCEzpKGpl3QcAeFK1Vj4C07Gx7AMAPJ8XTdMAJmNm0QcA+IWN624AaREAgDty51EBaREAgDsq990A6Sv1LQIAvGDpQCqQuJU7UQEAXpLbYARStigs9AAAryp0MALJnkNdWuQBAN4xcyIVSNLcOVQAgDdVH6pKIDm1K24AADqQ1ypLICmLraUdAKAbxUJ1CSSjzCzrAADdMVQDSMU8t6YDAHSpmqsxgQTUhmcAAHRuo4URiP4c6sxiDgDQh60WRiBqmeEZAAA9qTItjEC0VpoWAQB6lGthBOK01rQIANCzQgsjEJ9yafkGAOjfzIlUIDIfmhYBAAZRZWpPICK1pkUAgMHkK/UnEImFpkUAgEEVazUoEIEys2ADAAxtqYURCN5c0yIAwAiqD5UoELR6Y6kGABhHbqgGEK7F1jINADCeYqEiBYJUZs6hAgCMK9PCCARobngGAMDoqrm6FAjM2vAMAIAgbLQwAkGdQ51ZmAEAQjHTwggEQ9MiAEBIKi2MQBhWmhYBAAKTa2EExrfQtAgAEKBirVIFRlUuLcUAAGGaOZEKjOhD0yIAQLCqTL0KjKTWtAgAELR8pWYFRrDYWoABAEJXGKoBDK3MLL4AADFYamEEBjXXtAgAEInqQ/UKDKbeWHYBAOKxqVWwwCAWM0suAEBctloYgf6VmXOoAADxybQwAj1bGZ4BABClaq6WBXq0Liy0AACxKrQwAr2dQ9W0CAAQtZkWRqAXmhYBAGJXaWEEuldrWgQASEC+UtkCnVpoWgQASESxVt0CnSmXllUAgHTMnEgFOvKhaREAIClVpsYFOlBvLKgAAKnJDdUA3rXYWkwBAFJUGKoBvKPMLKQAAKlaamEEXjbXtAgAkLBqruIFXlIbngEAkLiNFkbg9xYzyycAQPq2WhiBX8qcQwUAmIZMCyPwC6vcugkAMBW5FkbgWWtNiwAAk1JoYQSeUWpaBACYnJkWRuChD02LAAATVGUqYeBHtaZFAICJyleqYeBbC02LAAATVqxVxPzL3n3gxpEDARQVO4w4Hff+p114o2yPpAkdGN67AwskwI+Cm94HIxIAoG6NpRrADa1oEQCgenF1LwZ+cZ0NRwAA3t46SzWAjy6LwQgAwN96SzWAf70H/1ABAPhfkDACf2ktzwAA4CexdUsG/rhangEAwG9mCSNU/w+1MQoBALhlkTBC1USLAAB8JkoYoV6jaBEAgC90Ekao0yRaBADgG72EESqMFgfDDwCA7zV+pEJlVtEiAAB3icHtGSpyFS0CAHC3bnSDhkpcRIsAADykn9yioYZoMRh3AAA8apAwQvFa0SIAAE+Iq7s0lB0tzgYdAADP6SzVgIKjxcaQAwDgecvFnRoKjRb9QwUA4DVBwgglRouWZwAA8LLYullDYSbLMwAA2MQsYYSi/qGKFgEA2EwjYYRiiBYBANhSlDBCGUbRIgAAG+skjJC/i2gRAIAd9JO7NuQdLQ4GGQAA+2j8SIWMraJFAAB2E4MbN2TqKloEAGBXnaUakGW0uBhfAADsrbdUA7KLFoPRBQDAEQYJI2SlFS0CAHCQuLp/Qz7RouUZAAAcaJYwQibRYmNgAQBwrEXCCDlEi/6hAgBwvCBhhMSNlmcAAHCK2LqNQ8Im0SIAAKfpJYyQ7D9U0SIAAKdqJIyQJNEiAABnixJGSM9VtAgAQAK60d0cknIRLQIAkIh+cj+HdKLFwVACACAdjR+pkIhVtAgAQFLi6pYOKUSLs3EEAEBqOks14PRocTGKAABIUW+pBpwaLQZjCACAVA0SRjhNa3kGAAAJi607O5wTLVqeAQBA4mYJI5wQLTaGDwAA6VskjHCwYHkGAAB5CBJGONAoWgQAIBudhBGOMokWAQDISi9hhCO8ixYBAMhOI2GE3a2iRQAAMhSDuzzs6ipaBAAgU93oPg+7uYgWAQDIWD+508M+0WIwYAAAyNtgqQbsoBUtAgCQvbi62cPW0eJstAAAUILOUg3YNFpcjBUAAErRW6oB20WL/qECAFCSIGGEbaJFyzMAAChMbN3z4fVo0fIMAAAKNEsY4cV/qI1BAgBAmRYJI7xAtAgAQLmihBGeNYoWAQAoWidhhGdMokUAAIrXSxjh4WhxMDoAAKhB40cqPGQVLQIAUIkY3P/hblfRIgAAFelGbwC4y2UxMAAAqEtvqQbcES0GwwIAgPoMEkb4RitaBACgSnH1GoCvosXZmAAAoFadpRrwabTYGBEAANRskTDC7WjRP1QAAGoXJIzwe7RoeQYAALzF1tsAfjL1BgMAAPwwSxjhwz9U0SIAAPynkTDCP0SLAADwUZQwwg+jaBEAAH7RjV4KVO8iWgQAgBv6yWuBuqPFwRgAAIDbGj9SqdgqWgQAgE/F4M1Apa6zAQAAAF/pLNWgymhxcfgBAOA7vaUaVBctBgcfAADuMUgYqUorWgQAgDvF1QuCeqJFyzMAAOABs4SRSqLFxnEHAIDHLBJGaogW/UMFAIDHBQkjhRs75xwAAJ4RW+8JCjaJFgEA4Gm9hJFi/6GKFgEA4CWNhJEiiRYBAOBVMXhZUJyraBEAADbQjV4XFOUiWgQAgI30kxcG5USLgyMNAADbaSzVoBCtaBEAADYVV+8MSogWZ4cZAAC21lmqQfbR4uIgAwDAHnpLNcg6WgwOMQAA7GWQMJJvtGh5BgAA7Ci2Xh3kGS1angEAADubJYxkGC02ji4AAOxvkTCSmWB5BgAAHCNIGMnIKFoEAIDDdBJGcjGJFgEA4FC9hJEcvA8OKwAAHK3xI5XkraJFAAA4QQxeIyTtKloEAICTdKMXCcm6iBYBAOBE/eRVQprRYnA8AQDgXIOEkQS1okUAADhdXL1NSC1anB1MAABIQWepBklFi4tDCQAAqegv3igkEy36hwoAACkJEkbSiBYtzwAAgMTE1kuF86NFyzMA/mTvznLdNoIAiqabpNLimP2vNnFgI7bzBj2JQw/nbIHFjwL6ogAgQ4uEkYvfoUa/IQAA5GmVMHIh0SIAAOQrSRi5yiRaBACArPUSRq5wEy0CAED2htnuwtnR4ujHAwCAEkQvUjnVJloEAIBCpGCD4TR30SIAABSkn2wxnBMtrn43AAAoy+CoBidEi8GvBgAA5RkljBysEy0CAECR0maf4chocfGTAQBAqfq7nYajosXoBwMAgJKtEkaOiRa9QwUAgNIFCSP7R4uOZwAAQAVSZ7thV/PgtwIAgDoMEkZ2fIcqWgQAgIpECSM7ES0CAEBdkoSRPdxFiwAAUJ1+suvwoptoEQAAqjTM9h1eiRZHPxEAANQqepHK0zbRIgAAVCwFWw/PRYuL3wcAAOrWO6rBE9Hi6tcBAID6DY5q8MVoMfhtAACgDaOEkS/oRIsAANCMtNmBeDRadDwDAACaskgYeShajH4WAABozSph5PNo0TtUAABoUZAw8qGp95cAAECb+s5GxLtm0SIAADRskDDyzjtU0SIAADQuShh5wyZaBACA5qVgN+L34xmiRQAA4B/9ZD/i5+MZokUAAOC7YbYj8SNaHP0QAADAf6KjGvyrEy0CAAC/SJtNib/ui18BAAD4Xe+oRvPR4uo3AAAA3jI4qtF0tBj8AgAAwHtGCWO70aLjGQAAwAdSZ29qM1p0PAMAAPjEImFs8B1qNPgAAMDnVgljY4LjGQAAwENSkDA2ZBItAgAAD+sljK2YRYsAAMCXDBLGJqLF0agDAABfFb1Ird4mWgQAAJ6Qgn2q7uMZokUAAOBJ/WSnqtZNtAgAALxgmO1VdUaLwXADAACvGSWMFepEiwAAwMvSZruqLVpcjDUAALCH3lGNqqLF1UgDAAB7GW62rGqiRe9QAQCAPQUJYx3RouMZAADAzlJn1yre7HgGAABwgEXCWPg71GiIAQCAY0QJY8FEiwAAwHGShLFUk2gRAAA4VC9hLPJ4hmgRAAA43DDbvkqLFkdjCwAAnCF6kVqUTbQIAACcJAU7WDHuokUAAOBE/WQPKyNaXA0rAABwrsFRjQKixWBQAQCA840Sxsx1okUAAOASabOR5RwtLkYUAAC4ynK3leUaLUbjCQAAXGmVMOYZLXqHCgAAXC1IGLMzOZ4BAABkIHX2s6zMg6EEAADyMEgYM3qHKloEAAAyEiWMmRAtAgAAeUkSxiyOZ4gWAQCA7PSTbe3q4xmiRQAAIEvDbGO7MlocjSAAAJCr6EXqZTbRIgAAkLEU7G3XRIuL4QMAAPLWO6pxQbS4GjwAACB/g6MaJ0eLwdABAABlGCWMJ+oczwAAAIqROlvcWdGi4xkAAEBRFgnjKdFiNGoAAEBpVgnj4YLjGQAAQImChPFQk2gRAAAoVC9hPM4sWgQAAAo2SBgPOp4hWgQAAAoXJYwH2ESLAABA8VKw3e19PEO0CAAAVKGfbHh7Hs8QLQIAANUYZlveXtHiaJwAAICaREc1dtGJFgEAgMqkza73erS4GCQAAKA+vaMaL0aLqyECAADqNDiq8UK0GLxDBQAA6hUkjM9Gi45nAAAAVUudze+ZaNHxDAAAoHqLhPHL71CjsQEAAFqwShi/RLQIAAC0IkkYHzeJFgEAgIb0EsbHzKJFAACgMYOE8YFocTQoAABAe6IXqZ/YRIsAAECTUrARfnQ8Q7QIAAA0q59she+4iRYBAICmDbPN8K1oMRgNAACgdaOE8X860SIAAMAfabMf/hotLoYCAADgm95RjZ+ixWggAAAAflhv9sTv0aJ3qAAAAD8LEsZv0aLjGQAAAL9JXfPL4ux4BgAAwBuWthPGP0WLAAAA74gNJ4yiRQAAgPelVhPGSbQIAADwob7FhPEmWgQAAPjUMLcWLY4+OgAAwCNiUy9SN9EiAADAg1JoZlm8ixaBv9m7lxy5QQCKosIYm/J3/7uNMkkmUaer2h/A5ywBRkhcPQAA3tA/Y1Rj2Fw1AADAe1L7oxpjcM0AAADvmxpPGKNoEQAA4CN5bzlaNJ4BAADwsbXVhHHoXC4AAMBPbEOT0aJ/qAAAAD8VmksYZ+MZAAAAB8ixqcfiIloEAAA4SGonYRxFiwAAAAfqGkkYRYsAAADHyi0kjC/RIgAAwOH6ufbxDNEiAADAKdJSc7Q4uUAAAICzdNX+SI2iRQAAgBPlvc5ocXV1AAAA5+rrG9UYNtcGAABwvlTXqMYYXBkAAMA1pooSxmg8AwAA4DI51hItGs8AAAC41FpDwjh0LgoAAOBqW/EJYzCeAQAAcIdQdMI4ixYBAABu0pebMC6iRQAAgBulMhPGUbQIAABws67AhHEXLQIAANwuh9LGM0SLAAAARejnksYzRIsAAADFSEsp0WJwGQAAACWZihjViKJFAACAwuT9/mhxdQ0AAADl6e8d1Rg2VwAAAFCmNNwYLfqHCgAAUK5wU8IYjWcAAAAULcc7okXjGQAAAMVbr04Yx86hAwAA1GC7NGEULQIAANQiX5cwzqJFAACAivTXJIyLaBEAAKAy6fyEcZwcMwAAQH26k3+k7qJFAACAKuVw5niGaBEAAKBa/XzSY3HYHC4AAEDN0hmjGmNwsAAAALWbDk8Yo2gRAACgAXk/NlpcHSkAAEAb+uNGNYbOcQIAALRjGw6KFv1DBQAAaEs4IGGMxjMAAACak+MPH4tLcogAAAAtWn+SMI6iRQAAgGZ1HyeMokUAAICW5c8Sxlm0CAAA0Lh+fn88Q7QIAADwAGl5L1qcHBkAAMAzdG/8SN1FiwAAAI+Rwzcfi6/VYQEAADxJ/51RjWFzUAAAAE+T/jeqMQaHBAAA8ETTlwljFC0CAAA81BcrjNHSIgAAwJN1/5phXCaPRQAAgMdL4fU3Yxxfe+etCAAAwJ9H428eigAAAAAAAAAAAAAAAAAAAAAAAAAAAAAAAAAAAAAAAAAAAAAAAAAAAAAAAAAAAAAAAAAAAAAAAAAAAAAAAAAAAAAAAAAAAAAAAAAAAAAAAAAAAAAAAAAAAAAAAAAAAAAAAAAAAAAAAAAAAAAAAAAAAAAAAAAAAAAAAAAAAAAAAAAAAAAAAAAAAAAAAAAAAAAAAAAAAAAAAAAAAAAAAAAAAAAAAAAAAAAAAAAAAAAAAAAAAAAAAAAAAAAAAAAAAAAAAAAAAAAAAAAAAAAAAAAAAAAAAAAAAAAAAAAAAAAAAAAAAAAAAAAAAAAAAAAAAAC/2IMDAQAAAAAg/9dGUFVVVVVVVVVVVVVVVVVVVVVVVVVVVVVVVVVVVVVVVVVVVVVVVVVVVVVVVVVVVVVVVVVVVVVVVVVVVVVVVVVVVVVVVVVVVVVVVVVVVVVVVVVVVVVVVVVVVVVVVVVVVVVVVVVVVVVVVVVVVVVVVVVVVVVVVVVVVVVVVVVVVVVVVVVVVVVVVVVVVVVVVVVVVVVVVVVVVVVVVVVVVVVVVVVVVVVVVVVVVVVVVVVVVVVVVVVVVVVVVVVVVVVVVVVVVVVVVVVVVVVVVVVVVVVVVVVVVVVVVVVVVVVVVVVVVVVVVVVVVVVVVVVVVVVVVVVVVVVVVVVVVVVVVVVVVVVVVVVVVVVVVVVVVVVVVVVVVVVVVVVVVVVVVVVVVVVVVVVVVVVVVVVVVVVVVVVVVVVVVVVVVVVVVVVVVVVVVVVVVVVVVVVVVVVVVVVVVVVVVVVVVVVVVVVVVVVVVVVVVVVVVVVVVVVVVVVVVVVVVVVVVVVVVVVVVVVVVVVVVVVVVVVVVVVVVVVVVVVVVVVVVVVVVVVVVVVVVVVVVVVVVVVVVVVVVVVVVVVVVVVVVVVVVVVVVVVVVVVVVVVVVVVVVVVVVVVVVVVVVVVVVVVVVVVVVVVVVVVVVVVVVVVVVVVVVVVVVVVVVVVVVVVVVVVVVVVVVVVVVVVVVVVVVVVVVVVVVVVVVVVhDw4EAAAAAID8XxtBVVVVVVVVVVVVVVVVVVVVVVVVVVVVVVVVVVVVVVVVVVVVVVVVVVVVVVVVVVVVVVVVVVVVVVVVVVVVVVVVVVVVVVVVVVVVVVVVVVVVVVVVVVVVVVVVVVVVVVVVVVVVVVVVVVVVVVVVVVVVVVVVVVVVVVVVVVVVVVVVVVVVVVVVVVVVVVVVVVVVVVVVVVVVVVVVVVVVVVVVVVVVVVVVVVVVVVVVVVVVVVVVVVVVVVVVVVVVVVVVVVVVVVVVVVVVVVVVVVVVVVVVVVVVVVVVVVVVVVVVVVVVVVVVVVVVVVVVVVVVVVVVVVVVVVVVVVVVVVVVVVVVVVVVVVVVVVVVVVVVVVVVVVVVVVVVVVVVVVVVVVVVVVVVVVVVVVVVVVVVVVVVVVVVVVVVVVVVVVVVVVVVVVVVVVVVVVVVVVVVVVVVVVVVVVVVVVVVVVVVVVVVVVVVVVVVVVVVVVVVVVVVVVVVVVVVVVVVVVVVVVVVVVVVVVVVVVVVVVVVVVVVVVVVVVVVVVVVVVVVVVVVVVVVVVVVVVVVVVVVVVVVVVVVVVVVVVVVVVVVVVVVVVVVVVVVVVVVVVVVVVVVVVVVVVVVVVVVVVVVVVVVVVVVVVVVVVVVVVVVVVVVVVVVVVVVVVVVVVVVVVVVVVVVVVVVVVVVVVVVVVVVVVVVVVVVVVVVVVVVVYU9OBAAAAAAAPJ/bQRVVVVVVVVVVVVVVVVVVVVVVVVVVVVVVVVVVVVVVVVVVVVVVVVVVVVVVVVVVVVVVVVVVVVVVVVVVVVVVVVVVVVVVVVVVVVVVVVVVVVVVVVVVVVVVVVVVVVVVVVVVVVVVVVVVVVVVVVVVVVVVVVVVVVVVVVVVVVVVVVVVVVVVVVVVVVVVVVVVVVVVVVVVVVVVVVVVVVVVVVVVVVVVVVVVVVVVVVVVVVVVVVVVVVVVVVVVVVVVVVVVVVVVVVVVVVVVVVVVVVVVVVVVVVVVVVVVVVVVVVVVVVVVVVVVVVVVVVVVVVVVVVVVVVVVVVVVVVVVVVVVVVVVVVVVVVVVVVVVVVVVVVVVVVVVVVVVVVVVVVVVVVVVVVVVVVVVVVVVVVVVVVVVVVVVVVVVVVVVVVVVVVVVVVVVVVVVVVVVVVVVVVVVVVVVVVVVVVVVVVVVVVVVVVVVVVVVVVVVVVVVVVVVVVVVVVVVVVVVVVVVVVVVVVVVVVVVVVVVVVVVVVVVVVVVVVVVVVVVVVVVVVVVVVVVVVVVVVVVVVVVVVVVVVVVVVVVVVVVVVVVVVVVVVVVVVVVVVVVVVVVVVVVVVVVVVVVVVVVVVVVVVVVVVVVVVVVVVVVVVVVVVVVVVVVVVVVVVVVVVVVVVVVVVVVVVVVVVVVVVVVVVVVVVVVVVVVVVVVVVVlfbggAQAAABA0P/X7QhUAAAAAAAAAAAAAAAAAAAAAAAAAAAAAAAAAAAAAABYC87TL7Yc1skeAAAAAElFTkSuQmCC;fillColor=#FFFF99;clipPath=inset(16.5% 28.33% 16.99% 28%);fontFamily=Tahoma;fontColor=#000000;" parent="BHrpFycbJCAirwx-hvO8-88" vertex="1">
                    <mxGeometry x="78.39999999999998" y="100.00000000000001" width="42.0728" height="44" as="geometry"/>
                </mxCell>
                <mxCell id="BHrpFycbJCAirwx-hvO8-83" value="" style="shape=image;verticalLabelPosition=bottom;verticalAlign=top;imageAspect=0;aspect=fixed;image=data:image/svg+xml,PHN2ZyB4bWxuczp4bGluaz0iaHR0cDovL3d3dy53My5vcmcvMTk5OS94bGluayIgeG1sbnM9Imh0dHA6Ly93d3cudzMub3JnLzIwMDAvc3ZnIiB2aWV3Qm94PSIwIDAgNDQyLjQgMjcwLjkiPjxkZWZzPjxsaW5lYXJHcmFkaWVudCBncmFkaWVudFVuaXRzPSJ1c2VyU3BhY2VPblVzZSIgeTI9IjE1OC40IiB5MT0iODAuNyIgeDI9IjE0Mi42IiB4MT0iMTgwLjciIGlkPSJiIj48c3RvcCBzdG9wLWNvbG9yPSIjM2Y4NzNmIiBvZmZzZXQ9IjAiLz48c3RvcCBzdG9wLWNvbG9yPSIjM2Y4YjNkIiBvZmZzZXQ9Ii4zIi8+PHN0b3Agc3RvcC1jb2xvcj0iIzNlOTYzNyIgb2Zmc2V0PSIuNiIvPjxzdG9wIHN0b3AtY29sb3I9IiMzZGE5MmUiIG9mZnNldD0iLjkiLz48c3RvcCBzdG9wLWNvbG9yPSIjM2RhZTJiIiBvZmZzZXQ9IjEiLz48L2xpbmVhckdyYWRpZW50PjxsaW5lYXJHcmFkaWVudCBncmFkaWVudFVuaXRzPSJ1c2VyU3BhY2VPblVzZSIgeTI9IjQyLjQiIHkxPSIxMjEuMyIgeDI9IjI2NCIgeDE9IjE1Ny4yIiBpZD0iZCI+PHN0b3Agc3RvcC1jb2xvcj0iIzNmODczZiIgb2Zmc2V0PSIuMSIvPjxzdG9wIHN0b3AtY29sb3I9IiM1MjlmNDQiIG9mZnNldD0iLjQiLz48c3RvcCBzdG9wLWNvbG9yPSIjNjNiNjQ5IiBvZmZzZXQ9Ii43Ii8+PHN0b3Agc3RvcC1jb2xvcj0iIzZhYmY0YiIgb2Zmc2V0PSIuOSIvPjwvbGluZWFyR3JhZGllbnQ+PGxpbmVhckdyYWRpZW50IGdyYWRpZW50VW5pdHM9InVzZXJTcGFjZU9uVXNlIiB5Mj0iNTMuOCIgeTE9IjUzLjgiIHgyPSIyMTIiIHgxPSIxMTQuNiIgaWQ9ImEiPjxzdG9wIHN0b3AtY29sb3I9IiM2YWJmNGIiIG9mZnNldD0iLjEiLz48c3RvcCBzdG9wLWNvbG9yPSIjNjNiNjQ5IiBvZmZzZXQ9Ii4zIi8+PHN0b3Agc3RvcC1jb2xvcj0iIzUyOWY0NCIgb2Zmc2V0PSIuNiIvPjxzdG9wIHN0b3AtY29sb3I9IiMzZjg3M2YiIG9mZnNldD0iLjkiLz48L2xpbmVhckdyYWRpZW50PjxsaW5lYXJHcmFkaWVudCB5Mj0iMTE1LjciIHkxPSIxMTUuNyIgeDI9IjIxMi4zIiB4MT0iMTE0LjkiIGlkPSJlIiB4bGluazpocmVmPSIjYSIvPjxsaW5lYXJHcmFkaWVudCB5Mj0iMTQzLjQiIHkxPSIxNDMuNCIgeDI9IjIxMiIgeDE9IjExNC42IiBpZD0iZiIgeGxpbms6aHJlZj0iI2EiLz48bGluZWFyR3JhZGllbnQgeTI9IjE1NiIgeTE9IjE1NiIgeDI9IjIxMi4zIiB4MT0iMTE0LjkiIGlkPSJnIiB4bGluazpocmVmPSIjYSIvPjxsaW5lYXJHcmFkaWVudCB5Mj0iMjAxIiB5MT0iNzguNCIgeDI9IjE2Ni40IiB4MT0iMjI2LjUiIGlkPSJoIiB4bGluazpocmVmPSIjYiIvPjxjbGlwUGF0aCB0cmFuc2Zvcm09InRyYW5zbGF0ZSgtLjMpIiBpZD0iYyI+PHBhdGggY2xpcC1ydWxlPSJldmVub2RkIiBkPSJNMTY2LjEgNjIuNmE1IDUgMCAwIDAtNSAwTDExOC44IDg3YTUgNSAwIDAgMC0yLjUgNC40VjE0MGE1IDUgMCAwIDAgMi41IDQuNGw0Mi4xIDI0LjNhNSA1IDAgMCAwIDUgMGw0Mi4yLTI0LjNhNSA1IDAgMCAwIDIuNi00LjRWOTEuM2E1IDUgMCAwIDAtMi42LTQuNHoiIGZpbGw9InVybCgjYikiLz48L2NsaXBQYXRoPjwvZGVmcz48cGF0aCBkPSJNMjE4LjcgMjcxYTguNCA4LjQgMCAwIDEtNC4yLTEuMmwtMTMuMy03LjljLTItMS4xLTEtMS41LS40LTEuN2EyNi4zIDI2LjMgMCAwIDAgNi0yLjggMSAxIDAgMCAxIDEgLjFsMTAuMiA2YTEuMyAxLjMgMCAwIDAgMS4zIDBsNDAtMjNhMS4zIDEuMyAwIDAgMCAuNS0xdi00Ni4yYTEuMyAxLjMgMCAwIDAtLjYtMWwtNDAtMjNhMS4yIDEuMiAwIDAgMC0xLjEgMGwtNDAgMjNhMS4zIDEuMyAwIDAgMC0uNiAxdjQ2LjFhMS4yIDEuMiAwIDAgMCAuNiAxLjFsMTEgNi4zYzYgMyA5LjYtLjUgOS42LTR2LTQ1LjVhMS4xIDEuMSAwIDAgMSAxLjEtMS4yaDVhMS4xIDEuMSAwIDAgMSAxLjIgMS4ydjQ1LjVjMCA4LTQuMyAxMi41LTExLjggMTIuNS0yLjMgMC00LjEgMC05LjItMi41bC0xMC41LTZhOC41IDguNSAwIDAgMS00LjItNy4zdi00Ni4xYTguNCA4LjQgMCAwIDEgNC4yLTcuM2w0MC0yMy4xYTguOCA4LjggMCAwIDEgOC4zIDBsNDAgMjNhOC40IDguNCAwIDAgMSA0LjIgNy40djQ2YTguNSA4LjUgMCAwIDEtNC4xIDcuM2wtNDAgMjMuMWE4LjQgOC40IDAgMCAxLTQuMiAxLjF6IiBmaWxsPSIjNjc5ZTYzIi8+PHBhdGggZD0iTTIzMSAyMzkuMmMtMTcuNSAwLTIxLjItOC0yMS4yLTE0LjhhMS4xIDEuMSAwIDAgMSAxLjItMS4xaDUuMmExLjEgMS4xIDAgMCAxIDEuMSAxYy44IDUuMiAzLjEgNy45IDEzLjcgNy45IDguNCAwIDEyLTIgMTItNi40IDAtMi42LTEtNC41LTE0LjEtNS44LTExLTEtMTcuNy0zLjUtMTcuNy0xMi4yIDAtOCA2LjgtMTIuOSAxOC4yLTEyLjkgMTIuOCAwIDE5LjEgNC41IDIwIDE0YTEuMSAxLjEgMCAwIDEtLjQgMSAxLjIgMS4yIDAgMCAxLS44LjNIMjQzYTEuMSAxLjEgMCAwIDEtMS4xLTFjLTEuMy01LjUtNC4zLTcuMi0xMi41LTcuMi05LjIgMC0xMC4zIDMuMi0xMC4zIDUuNiAwIDIuOSAxLjMgMy43IDEzLjcgNS40czE4LjEgMy45IDE4LjEgMTIuNS03LjIgMTMuNy0yMCAxMy43em01Ny42LTQ4LjRhNy43IDcuNyAwIDEgMS03LjctNy43IDcuNyA3LjcgMCAwIDEgNy43IDcuN3ptLTE0LjIgMGE2LjUgNi41IDAgMSAwIDYuNS02LjQgNi41IDYuNSAwIDAgMC02LjUgNi40em0zLjYtNC4zaDNjMSAwIDMgMCAzIDIuM2EyIDIgMCAwIDEtMS42IDIuMWMxLjEgMCAxLjIuOSAxLjQgMmE4LjUgOC41IDAgMCAwIC40IDIuM2gtMS44bC0uMy0yLjdjLS4xLS41LS4zLS44LTEtLjhoLTEuNHYzLjVIMjc4em0xLjYgMy44aDEuNGExLjIgMS4yIDAgMCAwIDEuMy0xLjJjMC0xLjItLjgtMS4yLTEuMy0xLjJoLTEuNHoiIGZpbGw9IiM2NzllNjMiLz48cGF0aCBkPSJNOTUgOTAuNWE1LjEgNS4xIDAgMCAwLTIuNi00LjRMNTAgNjEuN2E1LjEgNS4xIDAgMCAwLTIuMy0uNmgtLjVhNS4yIDUuMiAwIDAgMC0yLjMuNkwyLjYgODYuMUE1LjEgNS4xIDAgMCAwIDAgOTAuNnY2NS42YTIuNSAyLjUgMCAwIDAgMS40IDIuMiAyLjUgMi41IDAgMCAwIDIuNSAwTDI5LjEgMTQ0YTUuMiA1LjIgMCAwIDAgMi42LTQuNVYxMDlhNS4xIDUuMSAwIDAgMSAyLjUtNC40TDQ1IDk4LjNhNS4xIDUuMSAwIDAgMSAyLjUtLjcgNSA1IDAgMCAxIDIuNi43bDEwLjcgNi4yYTUuMSA1LjEgMCAwIDEgMi41IDQuNHYzMC42QTUuMiA1LjIgMCAwIDAgNjYgMTQ0bDI1IDE0LjRhMi41IDIuNSAwIDAgMCAyLjYgMCAyLjYgMi42IDAgMCAwIDEuMy0yLjJ6TTI5OC43LjNhMi42IDIuNiAwIDAgMC0zLjggMi4zdjY1YTEuOCAxLjggMCAwIDEtMSAxLjUgMS44IDEuOCAwIDAgMS0xLjcgMEwyODEuNiA2M2E1LjEgNS4xIDAgMCAwLTUgMEwyMzQgODcuNWE1IDUgMCAwIDAtMi41IDQuNHY0OC45YTUuMSA1LjEgMCAwIDAgMi42IDQuNGw0Mi4zIDI0LjVhNS4xIDUuMSAwIDAgMCA1LjEgMGw0Mi40LTI0LjVhNS4xIDUuMSAwIDAgMCAyLjYtNC40di0xMjJhNS4xIDUuMSAwIDAgMC0yLjctNC40em0tNCAxMjQuNGExLjMgMS4zIDAgMCAxLS42IDEuMWwtMTQuNSA4LjRhMS4zIDEuMyAwIDAgMS0xLjMgMGwtMTQuNS04LjRhMS4zIDEuMyAwIDAgMS0uNy0xdi0xNi45YTEuMyAxLjMgMCAwIDEgLjYtMWwxNC42LTguNWExLjMgMS4zIDAgMCAxIDEuMyAwbDE0LjUgOC40YTEuMyAxLjMgMCAwIDEgLjcgMS4xem0xNDUuMS0xNy4yYTUuMSA1LjEgMCAwIDAgMi42LTQuNFY5MS4yYTUuMSA1LjEgMCAwIDAtMi42LTQuNGwtNDIuMS0yNC41YTUuMSA1LjEgMCAwIDAtNS4xIDBsLTQyLjQgMjQuNWE1IDUgMCAwIDAtMi41IDQuNHY0OWE1LjEgNS4xIDAgMCAwIDIuNiA0LjRsNDIgMjRhNS4xIDUuMSAwIDAgMCA1IDBsMjUuNS0xNC4yYTIuNiAyLjYgMCAwIDAgMC00LjVsLTQyLjYtMjQuNGEyLjYgMi42IDAgMCAxLTEuMy0yLjJWMTA4YTIuNSAyLjUgMCAwIDEgMS4zLTIuMmwxMy4zLTcuN2EyLjUgMi41IDAgMCAxIDIuNSAwbDEzLjMgNy43YTIuNSAyLjUgMCAwIDEgMS4zIDIuMnYxMmEyLjUgMi41IDAgMCAwIDMuOCAyLjJ6IiBmaWxsLXJ1bGU9ImV2ZW5vZGQiIGZpbGw9IiMzMzMiLz48cGF0aCBkPSJNMzk0LjUgMTA1LjJhMSAxIDAgMCAxIDEgMGw4LjIgNC43YTEgMSAwIDAgMSAuNS44djkuNGExIDEgMCAwIDEtLjUuOWwtOC4xIDQuN2ExIDEgMCAwIDEtMSAwbC04LjItNC43YTEgMSAwIDAgMS0uNC0uOXYtOS40YTEgMSAwIDAgMSAuNC0uOHoiIGZpbGwtcnVsZT0iZXZlbm9kZCIgZmlsbD0iIzY3OWU2MyIvPjxwYXRoIHRyYW5zZm9ybT0idHJhbnNsYXRlKC0uMykiIGQ9Ik0xNjYuMSA2Mi42YTUgNSAwIDAgMC01IDBMMTE4LjggODdhNSA1IDAgMCAwLTIuNSA0LjRWMTQwYTUgNSAwIDAgMCAyLjUgNC40bDQyLjEgMjQuM2E1IDUgMCAwIDAgNSAwbDQyLjItMjQuM2E1IDUgMCAwIDAgMi42LTQuNFY5MS4zYTUgNSAwIDAgMC0yLjYtNC40eiIgZmlsbC1ydWxlPSJldmVub2RkIiBmaWxsPSJ1cmwoI2IpIi8+PGcgY2xpcC1wYXRoPSJ1cmwoI2MpIj48cGF0aCBkPSJtMTYwLjYgNjIuNi00Mi4yIDI0LjNhNS4zIDUuMyAwIDAgMC0yLjcgNC40VjE0MGE0LjkgNC45IDAgMCAwIDEuMyAzLjJsNDcuNC04MS4xYTUuMiA1LjIgMCAwIDAtMy44LjV6bTQuMSAxMDYuNmE1IDUgMCAwIDAgMS4yLS41bDQyLjEtMjQuM2E1LjIgNS4yIDAgMCAwIDIuNy00LjRWOTEuM2E1IDUgMCAwIDAtMS41LTMuNXoiIGZpbGw9Im5vbmUiLz48cGF0aCB0cmFuc2Zvcm09InRyYW5zbGF0ZSgtLjMpIiBkPSJtMjA4LjMgODctNDIuMi0yNC40YTUgNSAwIDAgMC0xLjMtLjVsLTQ3LjUgODEuMWE2IDYgMCAwIDAgMS40IDEuMmw0Mi40IDI0LjNhNS4yIDUuMiAwIDAgMCAzLjkuNWw0NC41LTgxLjRhNiA2IDAgMCAwLTEuMi0uOXoiIGZpbGw9InVybCgjZCkiLz48cGF0aCBkPSJNMjEwLjcgMTQwVjkxLjNBNS4yIDUuMiAwIDAgMCAyMDggODdsLTQyLjItMjQuM2E1IDUgMCAwIDAtMS42LS42bDQ2LjMgNzkuMWE0LjUgNC41IDAgMCAwIC4yLTEuMXptLTkyLjMtNTMuMWE1LjMgNS4zIDAgMCAwLTIuNyA0LjRWMTQwYTUuMyA1LjMgMCAwIDAgMi43IDQuNGw0Mi4zIDI0LjNhNS4xIDUuMSAwIDAgMCAzLjMuN2wtNDUuMy04Mi42eiIgZmlsbD0ibm9uZSIvPjxwYXRoIGQ9Im0xNTkuMyA1My42LS42LjRoLjhsLS4yLS40eiIgZmlsbD0idXJsKCNhKSIvPjxwYXRoIHRyYW5zZm9ybT0idHJhbnNsYXRlKC0uMykiIGQ9Ik0yMDguMyAxNDQuNGE1LjMgNS4zIDAgMCAwIDIuNS0zLjJMMTY0LjUgNjJhNS4yIDUuMiAwIDAgMC0zLjYuNkwxMTkgODYuOGw0NS4zIDgyLjZhNS4yIDUuMiAwIDAgMCAxLjktLjd6IiBmaWxsPSJ1cmwoI2UpIi8+PHBhdGggZD0ibTIxMiAxNDMuNi0uMy0uNXYuN2wuMy0uMnoiIGZpbGw9InVybCgjZikiLz48cGF0aCB0cmFuc2Zvcm09InRyYW5zbGF0ZSgtLjMpIiBkPSJtMjA4LjMgMTQ0LjQtNDIuMSAyNC4zYTUuMiA1LjIgMCAwIDEtMS45LjdsLjggMS41IDQ2LjktMjcuMXYtLjdsLTEuMi0yYTUuMyA1LjMgMCAwIDEtMi41IDMuM3oiIGZpbGw9InVybCgjZykiLz48cGF0aCB0cmFuc2Zvcm09InRyYW5zbGF0ZSgtLjMpIiBkPSJtMjA4LjMgMTQ0LjQtNDIuMSAyNC4zYTUuMiA1LjIgMCAwIDEtMS45LjdsLjggMS41IDQ2LjktMjcuMXYtLjdsLTEuMi0yYTUuMyA1LjMgMCAwIDEtMi41IDMuM3oiIGZpbGw9InVybCgjaCkiLz48L2c+PC9zdmc+;fillColor=#FFFF99;" parent="BHrpFycbJCAirwx-hvO8-88" vertex="1">
                    <mxGeometry x="220" y="15.5" width="67.41" height="41.33" as="geometry"/>
                </mxCell>
                <mxCell id="BHrpFycbJCAirwx-hvO8-90" value="" style="group;fontStyle=1" parent="1" vertex="1" connectable="0">
                    <mxGeometry x="1005.1800000000001" y="495" width="300" height="395" as="geometry"/>
                </mxCell>
                <mxCell id="BHrpFycbJCAirwx-hvO8-78" value="&lt;font color=&quot;#000000&quot;&gt;PeriLab server&lt;/font&gt;" style="whiteSpace=wrap;html=1;fillColor=#d5e8d4;fontSize=14;strokeColor=#82b366;verticalAlign=top;fontStyle=1;fontFamily=Tahoma;" parent="BHrpFycbJCAirwx-hvO8-90" vertex="1">
                    <mxGeometry width="300" height="250" as="geometry"/>
                </mxCell>
                <mxCell id="BHrpFycbJCAirwx-hvO8-79" value="" style="sketch=0;aspect=fixed;pointerEvents=1;shadow=0;dashed=0;html=1;strokeColor=none;labelPosition=center;verticalLabelPosition=bottom;verticalAlign=top;align=center;fillColor=#00188D;shape=mxgraph.mscae.enterprise.application_server2" parent="BHrpFycbJCAirwx-hvO8-90" vertex="1">
                    <mxGeometry x="10" y="22" width="34.4" height="40" as="geometry"/>
                </mxCell>
                <mxCell id="BHrpFycbJCAirwx-hvO8-10" value="PeriLab" style="sketch=0;aspect=fixed;pointerEvents=1;shadow=0;dashed=0;html=1;strokeColor=none;labelPosition=center;verticalLabelPosition=bottom;verticalAlign=top;align=center;fillColor=#00188D;shape=mxgraph.mscae.enterprise.application_server;fontFamily=Tahoma;fontColor=#000000;" parent="BHrpFycbJCAirwx-hvO8-90" vertex="1">
                    <mxGeometry x="128.4999999999999" y="100" width="43" height="50" as="geometry"/>
                </mxCell>
                <mxCell id="4" value="" style="shape=image;verticalLabelPosition=bottom;labelBackgroundColor=default;verticalAlign=top;aspect=fixed;imageAspect=0;image=data:image/svg+xml,PHN2ZyB4bWxuczp4bGluaz0iaHR0cDovL3d3dy53My5vcmcvMTk5OS94bGluayIgeG1sbnM9Imh0dHA6Ly93d3cudzMub3JnLzIwMDAvc3ZnIiB2aWV3Qm94PSIwIDAgMzYwIDI2MCIgaGVpZ2h0PSIyNjAiIHdpZHRoPSIzNjAiPgo8cGF0aCBkPSJNIDg3Ljg3MTA5NCAyMDAuODEyNSBDIDg3Ljg3MTA5NCAyMDguMzQ3NjU2IDg3LjAyMzQzOCAyMTQuNDMzNTk0IDg1LjMyODEyNSAyMTkuMDY2NDA2IEMgODMuNjMyODEyIDIyMy43MDMxMjUgODEuMjIyNjU2IDIyNy4zMDA3ODEgNzguMDkzNzUgMjI5Ljg2MzI4MSBDIDc0Ljk2ODc1IDIzMi40MjU3ODEgNzEuMjE4NzUgMjM0LjE0MDYyNSA2Ni44NDc2NTYgMjM1LjAwNzgxMiBDIDYyLjQ3NjU2MiAyMzUuODcxMDk0IDU3LjYxMzI4MSAyMzYuMzA0Njg4IDUyLjI2NTYyNSAyMzYuMzA0Njg4IEMgNDUuMDI3MzQ0IDIzNi4zMDQ2ODggMzkuNDg4MjgxIDIzNS4xNzU3ODEgMzUuNjQ4NDM4IDIzMi45MTQwNjIgQyAzMS44MDQ2ODggMjMwLjY1MjM0NCAyOS44ODI4MTIgMjI3Ljk0MTQwNiAyOS44ODI4MTIgMjI0Ljc3MzQzOCBDIDI5Ljg4MjgxMiAyMjIuMTM2NzE5IDMwLjk1MzEyNSAyMTkuOTE0MDYyIDMzLjEwMTU2MiAyMTguMTA1NDY5IEMgMzUuMjUgMjE2LjI5Njg3NSAzOC4xMzI4MTIgMjE1LjM5NDUzMSA0MS43NSAyMTUuMzk0NTMxIEMgNDQuNDY0ODQ0IDIxNS4zOTQ1MzEgNDYuNjMyODEyIDIxNi4xMjg5MDYgNDguMjUgMjE3LjU5NzY1NiBDIDQ5Ljg3MTA5NCAyMTkuMDY2NDA2IDUxLjIxMDkzOCAyMjAuNTE5NTMxIDUyLjI2NTYyNSAyMjEuOTQ5MjE5IEMgNTMuNDY4NzUgMjIzLjUzMTI1IDU0LjQ4ODI4MSAyMjQuNTg1OTM4IDU1LjMxNjQwNiAyMjUuMTEzMjgxIEMgNTYuMTQ0NTMxIDIyNS42NDA2MjUgNTYuODk4NDM4IDIyNS45MDYyNSA1Ny41NzgxMjUgMjI1LjkwNjI1IEMgNTkuMDA3ODEyIDIyNS45MDYyNSA2MC4xMDE1NjIgMjI1LjA1ODU5NCA2MC44NTU0NjkgMjIzLjM2MzI4MSBDIDYxLjYwOTM3NSAyMjEuNjY3OTY5IDYxLjk4NDM3NSAyMTguMzcxMDk0IDYxLjk4NDM3NSAyMTMuNDcyNjU2IEwgNjEuOTg0Mzc1IDEyMC41NTA3ODEgTCA4Ny44NzEwOTQgMTEzLjQyOTY4OCBaIE0gMTI0LjczODI4MSAxMTUuOTE0MDYyIEwgMTI0LjczODI4MSAxNzUuNzE0ODQ0IEMgMTI0LjczODI4MSAxNzcuMzc1IDEyNS4wNTg1OTQgMTc4LjkzNzUgMTI1LjY5OTIxOSAxODAuNDA2MjUgQyAxMjYuMzM5ODQ0IDE4MS44NzUgMTI3LjIyNjU2MiAxODMuMTQwNjI1IDEyOC4zNTU0NjkgMTg0LjE5NTMxMiBDIDEyOS40ODgyODEgMTg1LjI1IDEzMC44MDQ2ODggMTg2LjA5NzY1NiAxMzIuMzEyNSAxODYuNzM4MjgxIEMgMTMzLjgyMDMxMiAxODcuMzc4OTA2IDEzNS40NDE0MDYgMTg3LjY5OTIxOSAxMzcuMTc1NzgxIDE4Ny42OTkyMTkgQyAxMzkuMTMyODEyIDE4Ny42OTkyMTkgMTQxLjM1OTM3NSAxODYuNjAxNTYyIDE0NC4wNzAzMTIgMTg0LjcwMzEyNSBDIDE0OC4zNjMyODEgMTgxLjY5NTMxMiAxNTAuOTY0ODQ0IDE3OS42Mjg5MDYgMTUwLjk2NDg0NCAxNzcuMTgzNTk0IEwgMTUwLjk2NDg0NCAxMTUuOTE0MDYyIEwgMTc2LjczODI4MSAxMTUuOTE0MDYyIEwgMTc2LjczODI4MSAyMDAuODEyNSBMIDE1MC45NjQ4NDQgMjAwLjgxMjUgTCAxNTAuOTY0ODQ0IDE5Mi44OTg0MzggQyAxNDcuNTc0MjE5IDE5NS43NjE3MTkgMTQzLjk1NzAzMSAxOTguMDU4NTk0IDE0MC4xMTMyODEgMTk5Ljc5Mjk2OSBDIDEzNi4yNjk1MzEgMjAxLjUyNzM0NCAxMzIuNTM5MDYyIDIwMi4zOTQ1MzEgMTI4LjkyMTg3NSAyMDIuMzk0NTMxIEMgMTI0LjcwMzEyNSAyMDIuMzk0NTMxIDEyMC43ODEyNSAyMDEuNjk1MzEyIDExNy4xNjQwNjIgMjAwLjMwMDc4MSBDIDExMy41NDY4NzUgMTk4LjkwNjI1IDExMC4zODI4MTIgMTk3LjAwMzkwNiAxMDcuNjcxODc1IDE5NC41OTM3NSBDIDEwNC45NTcwMzEgMTkyLjE4MzU5NCAxMDIuODI4MTI1IDE4OS4zNTU0NjkgMTAxLjI4MTI1IDE4Ni4xMTMyODEgQyA5OS43MzgyODEgMTgyLjg3NSA5OC45NjQ4NDQgMTc5LjQwNjI1IDk4Ljk2NDg0NCAxNzUuNzE0ODQ0IEwgOTguOTY0ODQ0IDExNS45MTQwNjIgWiBNIDIxMi44ODI4MTIgMjAwLjgxMjUgTCAxODcuMjIyNjU2IDIwMC44MTI1IEwgMTg3LjIyMjY1NiA4MS43NzczNDQgTCAyMTIuODgyODEyIDc0LjY1NjI1IFogTSAyMjMuNjAxNTYyIDEyMC41NTA3ODEgTCAyNDkuMzc1IDExMy40Mjk2ODggTCAyNDkuMzc1IDIwMC44MTI1IEwgMjIzLjYwMTU2MiAyMDAuODEyNSBaIE0gMzAzLjIyNjU2MiAxNTYuOTQ5MjE5IEMgMzAwLjczODI4MSAxNTguMDA3ODEyIDI5OC4yMzA0NjkgMTU5LjIzMDQ2OSAyOTUuNzA3MDMxIDE2MC42MjUgQyAyOTMuMTgzNTk0IDE2Mi4wMTk1MzEgMjkwLjg4MjgxMiAxNjMuNTQ2ODc1IDI4OC44MTI1IDE2NS4yMDMxMjUgQyAyODYuNzM4MjgxIDE2Ni44NTkzNzUgMjg1LjA2MjUgMTY4LjYzMjgxMiAyODMuNzgxMjUgMTcwLjUxNTYyNSBDIDI4Mi41IDE3Mi4zOTg0MzggMjgxLjg1OTM3NSAxNzQuMzU5Mzc1IDI4MS44NTkzNzUgMTc2LjM5NDUzMSBDIDI4MS44NTkzNzUgMTc3Ljk3NjU2MiAyODIuMDY2NDA2IDE3OS41MDM5MDYgMjgyLjQ4MDQ2OSAxODAuOTcyNjU2IEMgMjgyLjg5NDUzMSAxODIuNDQxNDA2IDI4My40ODA0NjkgMTgzLjcwMzEyNSAyODQuMjM0Mzc1IDE4NC43NTc4MTIgQyAyODQuOTg4MjgxIDE4NS44MTI1IDI4NS44MTY0MDYgMTg2LjY2MDE1NiAyODYuNzIyNjU2IDE4Ny4zMDA3ODEgQyAyODcuNjI1IDE4Ny45NDE0MDYgMjg4LjYwNTQ2OSAxODguMjYxNzE5IDI4OS42NjAxNTYgMTg4LjI2MTcxOSBDIDI5MS43Njk1MzEgMTg4LjI2MTcxOSAyOTMuODk4NDM4IDE4Ny42MjEwOTQgMjk2LjA0Njg3NSAxODYuMzM5ODQ0IEMgMjk4LjE5NTMxMiAxODUuMDU4NTk0IDMwMC41ODU5MzggMTgzLjQ0MTQwNiAzMDMuMjI2NTYyIDE4MS40ODA0NjkgWiBNIDMyOS4xMDkzNzUgMjAwLjgxMjUgTCAzMDMuMjI2NTYyIDIwMC44MTI1IEwgMzAzLjIyNjU2MiAxOTQuMDI3MzQ0IEMgMzAxLjc5Mjk2OSAxOTUuMjM0Mzc1IDMwMC4zOTg0MzggMTk2LjM0NzY1NiAyOTkuMDQyOTY5IDE5Ny4zNjMyODEgQyAyOTcuNjg3NSAxOTguMzc4OTA2IDI5Ni4xNjAxNTYgMTk5LjI2NTYyNSAyOTQuNDY0ODQ0IDIwMC4wMTk1MzEgQyAyOTIuNzY5NTMxIDIwMC43NzM0MzggMjkwLjg2NzE4OCAyMDEuMzU1NDY5IDI4OC43NTM5MDYgMjAxLjc3MzQzOCBDIDI4Ni42NDQ1MzEgMjAyLjE4NzUgMjg0LjE1NjI1IDIwMi4zOTQ1MzEgMjgxLjI5Njg3NSAyMDIuMzk0NTMxIEMgMjc3LjM3NSAyMDIuMzk0NTMxIDI3My44NTE1NjIgMjAxLjgyODEyNSAyNzAuNzI2NTYyIDIwMC42OTkyMTkgQyAyNjcuNTk3NjU2IDE5OS41NjY0MDYgMjY0Ljk0MTQwNiAxOTguMDIzNDM4IDI2Mi43NTc4MTIgMTk2LjA2MjUgQyAyNjAuNTcwMzEyIDE5NC4xMDU0NjkgMjU4Ljg5NDUzMSAxOTEuNzg1MTU2IDI1Ny43MjY1NjIgMTg5LjEwOTM3NSBDIDI1Ni41NTg1OTQgMTg2LjQzNzUgMjU1Ljk3MjY1NiAxODMuNTE1NjI1IDI1NS45NzI2NTYgMTgwLjM1MTU2MiBDIDI1NS45NzI2NTYgMTc3LjEwOTM3NSAyNTYuNTkzNzUgMTc0LjE3MTg3NSAyNTcuODM5ODQ0IDE3MS41MzEyNSBDIDI1OS4wODIwMzEgMTY4Ljg5NDUzMSAyNjAuNzc3MzQ0IDE2Ni41MjM0MzggMjYyLjkyNTc4MSAxNjQuNDEwMTU2IEMgMjY1LjA3NDIxOSAxNjIuMzAwNzgxIDI2Ny41NzgxMjUgMTYwLjQxNzk2OSAyNzAuNDQxNDA2IDE1OC43NTc4MTIgQyAyNzMuMzA0Njg4IDE1Ny4xMDE1NjIgMjc2LjM3ODkwNiAxNTUuNTc0MjE5IDI3OS42NTYyNSAxNTQuMTc5Njg4IEMgMjgyLjkzMzU5NCAxNTIuNzg1MTU2IDI4Ni4zNDM3NSAxNTEuNTA3ODEyIDI4OS44ODY3MTkgMTUwLjMzOTg0NCBDIDI5My40MjU3ODEgMTQ5LjE3MTg3NSAyOTYuOTMzNTk0IDE0OC4wNTg1OTQgMzAwLjM5ODQzOCAxNDcuMDAzOTA2IEwgMzAzLjIyNjU2MiAxNDYuMzI0MjE5IEwgMzAzLjIyNjU2MiAxMzcuOTYwOTM4IEMgMzAzLjIyNjU2MiAxMzIuNTM1MTU2IDMwMi4xODc1IDEyOC42OTE0MDYgMzAwLjExNzE4OCAxMjYuNDI5Njg4IEMgMjk4LjA0Mjk2OSAxMjQuMTY3OTY5IDI5NS4yNzM0MzggMTIzLjAzOTA2MiAyOTEuODA4NTk0IDEyMy4wMzkwNjIgQyAyODcuNzM4MjgxIDEyMy4wMzkwNjIgMjg0LjkxMDE1NiAxMjQuMDE5NTMxIDI4My4zMjgxMjUgMTI1Ljk3NjU2MiBDIDI4MS43NDYwOTQgMTI3LjkzNzUgMjgwLjk1MzEyNSAxMzAuMzA4NTk0IDI4MC45NTMxMjUgMTMzLjA5NzY1NiBDIDI4MC45NTMxMjUgMTM0LjY3OTY4OCAyODAuNzg1MTU2IDEzNi4yMjY1NjIgMjgwLjQ0NTMxMiAxMzcuNzM0Mzc1IEMgMjgwLjEwOTM3NSAxMzkuMjQyMTg4IDI3OS41MjM0MzggMTQwLjU1ODU5NCAyNzguNjk1MzEyIDE0MS42OTE0MDYgQyAyNzcuODY3MTg4IDE0Mi44MjAzMTIgMjc2LjY3OTY4OCAxNDMuNzI2NTYyIDI3NS4xMzI4MTIgMTQ0LjQwMjM0NCBDIDI3My41ODk4NDQgMTQ1LjA4MjAzMSAyNzEuNjQ4NDM4IDE0NS40MjE4NzUgMjY5LjMxMjUgMTQ1LjQyMTg3NSBDIDI2NS42OTUzMTIgMTQ1LjQyMTg3NSAyNjIuNzU3ODEyIDE0NC4zODI4MTIgMjYwLjQ5NjA5NCAxNDIuMzEyNSBDIDI1OC4yMzQzNzUgMTQwLjIzODI4MSAyNTcuMTA1NDY5IDEzNy42MjEwOTQgMjU3LjEwNTQ2OSAxMzQuNDUzMTI1IEMgMjU3LjEwNTQ2OSAxMzEuNTE1NjI1IDI1OC4xMDE1NjIgMTI4Ljc4NTE1NiAyNjAuMDk3NjU2IDEyNi4yNjE3MTkgQyAyNjIuMDk3NjU2IDEyMy43MzQzNzUgMjY0Ljc4OTA2MiAxMjEuNTY2NDA2IDI2OC4xODM1OTQgMTE5Ljc2MTcxOSBDIDI3MS41NzQyMTkgMTE3Ljk0OTIxOSAyNzUuNDkyMTg4IDExNi41MTk1MzEgMjc5LjkzNzUgMTE1LjQ2NDg0NCBDIDI4NC4zODI4MTIgMTE0LjQxMDE1NiAyODkuMDkzNzUgMTEzLjg4MjgxMiAyOTQuMDY2NDA2IDExMy44ODI4MTIgQyAzMDAuMTcxODc1IDExMy44ODI4MTIgMzA1LjQyOTY4OCAxMTQuNDI5Njg4IDMwOS44Mzk4NDQgMTE1LjUxOTUzMSBDIDMxNC4yNDYwOTQgMTE2LjYxMzI4MSAzMTcuODgyODEyIDExOC4xNzU3ODEgMzIwLjc0NjA5NCAxMjAuMjEwOTM4IEMgMzIzLjYwOTM3NSAxMjIuMjQ2MDk0IDMyNS43MTg3NSAxMjQuNjk1MzEyIDMyNy4wNzQyMTkgMTI3LjU1ODU5NCBDIDMyOC40MzM1OTQgMTMwLjQyMTg3NSAzMjkuMTA5Mzc1IDEzMy42Mjg5MDYgMzI5LjEwOTM3NSAxMzcuMTY3OTY5IFogTSA5Mi45NTMxMjUgOTEuNTg5ODQ0IEMgOTIuOTUzMTI1IDEwMS4yNTc4MTIgODUuMTE3MTg4IDEwOS4wODk4NDQgNzUuNDUzMTI1IDEwOS4wODk4NDQgQyA2NS43ODkwNjIgMTA5LjA4OTg0NCA1Ny45NTMxMjUgMTAxLjI1NzgxMiA1Ny45NTMxMjUgOTEuNTg5ODQ0IEMgNTcuOTUzMTI1IDgxLjkyNTc4MSA2NS43ODkwNjIgNzQuMDg5ODQ0IDc1LjQ1MzEyNSA3NC4wODk4NDQgQyA4NS4xMTcxODggNzQuMDg5ODQ0IDkyLjk1MzEyNSA4MS45MjU3ODEgOTIuOTUzMTI1IDkxLjU4OTg0NCBaIE0gMjc2LjMwMDc4MSA1NS4xNzE4NzUgQyAyNzYuMzAwNzgxIDY0LjgzNTkzOCAyNjguNDY0ODQ0IDcyLjY3MTg3NSAyNTguODAwNzgxIDcyLjY3MTg3NSBDIDI0OS4xMzI4MTIgNzIuNjcxODc1IDI0MS4zMDA3ODEgNjQuODM1OTM4IDI0MS4zMDA3ODEgNTUuMTcxODc1IEMgMjQxLjMwMDc4MSA0NS41MDc4MTIgMjQ5LjEzMjgxMiAzNy42NzE4NzUgMjU4LjgwMDc4MSAzNy42NzE4NzUgQyAyNjguNDY0ODQ0IDM3LjY3MTg3NSAyNzYuMzAwNzgxIDQ1LjUwNzgxMiAyNzYuMzAwNzgxIDU1LjE3MTg3NSBaIE0gMjk3LjMyMDMxMiA5MS41ODk4NDQgQyAyOTcuMzIwMzEyIDEwMS4yNTc4MTIgMjg5LjQ4NDM3NSAxMDkuMDg5ODQ0IDI3OS44MjAzMTIgMTA5LjA4OTg0NCBDIDI3MC4xNTYyNSAxMDkuMDg5ODQ0IDI2Mi4zMjAzMTIgMTAxLjI1NzgxMiAyNjIuMzIwMzEyIDkxLjU4OTg0NCBDIDI2Mi4zMjAzMTIgODEuOTI1NzgxIDI3MC4xNTYyNSA3NC4wODk4NDQgMjc5LjgyMDMxMiA3NC4wODk4NDQgQyAyODkuNDg0Mzc1IDc0LjA4OTg0NCAyOTcuMzIwMzEyIDgxLjkyNTc4MSAyOTcuMzIwMzEyIDkxLjU4OTg0NCBaIE0gMjU1LjI3MzQzOCA5MS41ODk4NDQgQyAyNTUuMjczNDM4IDEwMS4yNTc4MTIgMjQ3LjQzNzUgMTA5LjA4OTg0NCAyMzcuNzczNDM4IDEwOS4wODk4NDQgQyAyMjguMTA1NDY5IDEwOS4wODk4NDQgMjIwLjI3MzQzOCAxMDEuMjU3ODEyIDIyMC4yNzM0MzggOTEuNTg5ODQ0IEMgMjIwLjI3MzQzOCA4MS45MjU3ODEgMjI4LjEwNTQ2OSA3NC4wODk4NDQgMjM3Ljc3MzQzOCA3NC4wODk4NDQgQyAyNDcuNDM3NSA3NC4wODk4NDQgMjU1LjI3MzQzOCA4MS45MjU3ODEgMjU1LjI3MzQzOCA5MS41ODk4NDQgWiBNIDI1NS4yNzM0MzggOTEuNTg5ODQ0IiBzdHJva2UtbWl0ZXJsaW1pdD0iMTAiIHN0cm9rZS1vcGFjaXR5PSIxIiBzdHJva2U9InJnYigxMDAlLCAxMDAlLCAxMDAlKSIgc3Ryb2tlLWxpbmVqb2luPSJtaXRlciIgc3Ryb2tlLWxpbmVjYXA9ImJ1dHQiIHN0cm9rZS13aWR0aD0iMSIgZmlsbD0ibm9uZSIvPgo8cGF0aCBkPSJNIDg3Ljg3MTA5NCAyMDAuODEyNSBDIDg3Ljg3MTA5NCAyMDguMzQ3NjU2IDg3LjAyMzQzOCAyMTQuNDMzNTk0IDg1LjMyODEyNSAyMTkuMDY2NDA2IEMgODMuNjMyODEyIDIyMy43MDMxMjUgODEuMjIyNjU2IDIyNy4zMDA3ODEgNzguMDkzNzUgMjI5Ljg2MzI4MSBDIDc0Ljk2ODc1IDIzMi40MjU3ODEgNzEuMjE4NzUgMjM0LjE0MDYyNSA2Ni44NDc2NTYgMjM1LjAwNzgxMiBDIDYyLjQ3NjU2MiAyMzUuODcxMDk0IDU3LjYxMzI4MSAyMzYuMzA0Njg4IDUyLjI2NTYyNSAyMzYuMzA0Njg4IEMgNDUuMDI3MzQ0IDIzNi4zMDQ2ODggMzkuNDg4MjgxIDIzNS4xNzU3ODEgMzUuNjQ4NDM4IDIzMi45MTQwNjIgQyAzMS44MDQ2ODggMjMwLjY1MjM0NCAyOS44ODI4MTIgMjI3Ljk0MTQwNiAyOS44ODI4MTIgMjI0Ljc3MzQzOCBDIDI5Ljg4MjgxMiAyMjIuMTM2NzE5IDMwLjk1MzEyNSAyMTkuOTE0MDYyIDMzLjEwMTU2MiAyMTguMTA1NDY5IEMgMzUuMjUgMjE2LjI5Njg3NSAzOC4xMzI4MTIgMjE1LjM5NDUzMSA0MS43NSAyMTUuMzk0NTMxIEMgNDQuNDY0ODQ0IDIxNS4zOTQ1MzEgNDYuNjMyODEyIDIxNi4xMjg5MDYgNDguMjUgMjE3LjU5NzY1NiBDIDQ5Ljg3MTA5NCAyMTkuMDY2NDA2IDUxLjIxMDkzOCAyMjAuNTE5NTMxIDUyLjI2NTYyNSAyMjEuOTQ5MjE5IEMgNTMuNDY4NzUgMjIzLjUzMTI1IDU0LjQ4ODI4MSAyMjQuNTg1OTM4IDU1LjMxNjQwNiAyMjUuMTEzMjgxIEMgNTYuMTQ0NTMxIDIyNS42NDA2MjUgNTYuODk4NDM4IDIyNS45MDYyNSA1Ny41NzgxMjUgMjI1LjkwNjI1IEMgNTkuMDA3ODEyIDIyNS45MDYyNSA2MC4xMDE1NjIgMjI1LjA1ODU5NCA2MC44NTU0NjkgMjIzLjM2MzI4MSBDIDYxLjYwOTM3NSAyMjEuNjY3OTY5IDYxLjk4NDM3NSAyMTguMzcxMDk0IDYxLjk4NDM3NSAyMTMuNDcyNjU2IEwgNjEuOTg0Mzc1IDEyMC41NTA3ODEgTCA4Ny44NzEwOTQgMTEzLjQyOTY4OCBaIE0gMTI0LjczODI4MSAxMTUuOTE0MDYyIEwgMTI0LjczODI4MSAxNzUuNzE0ODQ0IEMgMTI0LjczODI4MSAxNzcuMzc1IDEyNS4wNTg1OTQgMTc4LjkzNzUgMTI1LjY5OTIxOSAxODAuNDA2MjUgQyAxMjYuMzM5ODQ0IDE4MS44NzUgMTI3LjIyNjU2MiAxODMuMTQwNjI1IDEyOC4zNTU0NjkgMTg0LjE5NTMxMiBDIDEyOS40ODgyODEgMTg1LjI1IDEzMC44MDQ2ODggMTg2LjA5NzY1NiAxMzIuMzEyNSAxODYuNzM4MjgxIEMgMTMzLjgyMDMxMiAxODcuMzc4OTA2IDEzNS40NDE0MDYgMTg3LjY5OTIxOSAxMzcuMTc1NzgxIDE4Ny42OTkyMTkgQyAxMzkuMTMyODEyIDE4Ny42OTkyMTkgMTQxLjM1OTM3NSAxODYuNjAxNTYyIDE0NC4wNzAzMTIgMTg0LjcwMzEyNSBDIDE0OC4zNjMyODEgMTgxLjY5NTMxMiAxNTAuOTY0ODQ0IDE3OS42Mjg5MDYgMTUwLjk2NDg0NCAxNzcuMTgzNTk0IEwgMTUwLjk2NDg0NCAxMTUuOTE0MDYyIEwgMTc2LjczODI4MSAxMTUuOTE0MDYyIEwgMTc2LjczODI4MSAyMDAuODEyNSBMIDE1MC45NjQ4NDQgMjAwLjgxMjUgTCAxNTAuOTY0ODQ0IDE5Mi44OTg0MzggQyAxNDcuNTc0MjE5IDE5NS43NjE3MTkgMTQzLjk1NzAzMSAxOTguMDU4NTk0IDE0MC4xMTMyODEgMTk5Ljc5Mjk2OSBDIDEzNi4yNjk1MzEgMjAxLjUyNzM0NCAxMzIuNTM5MDYyIDIwMi4zOTQ1MzEgMTI4LjkyMTg3NSAyMDIuMzk0NTMxIEMgMTI0LjcwMzEyNSAyMDIuMzk0NTMxIDEyMC43ODEyNSAyMDEuNjk1MzEyIDExNy4xNjQwNjIgMjAwLjMwMDc4MSBDIDExMy41NDY4NzUgMTk4LjkwNjI1IDExMC4zODI4MTIgMTk3LjAwMzkwNiAxMDcuNjcxODc1IDE5NC41OTM3NSBDIDEwNC45NTcwMzEgMTkyLjE4MzU5NCAxMDIuODI4MTI1IDE4OS4zNTU0NjkgMTAxLjI4MTI1IDE4Ni4xMTMyODEgQyA5OS43MzgyODEgMTgyLjg3NSA5OC45NjQ4NDQgMTc5LjQwNjI1IDk4Ljk2NDg0NCAxNzUuNzE0ODQ0IEwgOTguOTY0ODQ0IDExNS45MTQwNjIgWiBNIDIxMi44ODI4MTIgMjAwLjgxMjUgTCAxODcuMjIyNjU2IDIwMC44MTI1IEwgMTg3LjIyMjY1NiA4MS43NzczNDQgTCAyMTIuODgyODEyIDc0LjY1NjI1IFogTSAyMjMuNjAxNTYyIDEyMC41NTA3ODEgTCAyNDkuMzc1IDExMy40Mjk2ODggTCAyNDkuMzc1IDIwMC44MTI1IEwgMjIzLjYwMTU2MiAyMDAuODEyNSBaIE0gMzAzLjIyNjU2MiAxNTYuOTQ5MjE5IEMgMzAwLjczODI4MSAxNTguMDA3ODEyIDI5OC4yMzA0NjkgMTU5LjIzMDQ2OSAyOTUuNzA3MDMxIDE2MC42MjUgQyAyOTMuMTgzNTk0IDE2Mi4wMTk1MzEgMjkwLjg4MjgxMiAxNjMuNTQ2ODc1IDI4OC44MTI1IDE2NS4yMDMxMjUgQyAyODYuNzM4MjgxIDE2Ni44NTkzNzUgMjg1LjA2MjUgMTY4LjYzMjgxMiAyODMuNzgxMjUgMTcwLjUxNTYyNSBDIDI4Mi41IDE3Mi4zOTg0MzggMjgxLjg1OTM3NSAxNzQuMzU5Mzc1IDI4MS44NTkzNzUgMTc2LjM5NDUzMSBDIDI4MS44NTkzNzUgMTc3Ljk3NjU2MiAyODIuMDY2NDA2IDE3OS41MDM5MDYgMjgyLjQ4MDQ2OSAxODAuOTcyNjU2IEMgMjgyLjg5NDUzMSAxODIuNDQxNDA2IDI4My40ODA0NjkgMTgzLjcwMzEyNSAyODQuMjM0Mzc1IDE4NC43NTc4MTIgQyAyODQuOTg4MjgxIDE4NS44MTI1IDI4NS44MTY0MDYgMTg2LjY2MDE1NiAyODYuNzIyNjU2IDE4Ny4zMDA3ODEgQyAyODcuNjI1IDE4Ny45NDE0MDYgMjg4LjYwNTQ2OSAxODguMjYxNzE5IDI4OS42NjAxNTYgMTg4LjI2MTcxOSBDIDI5MS43Njk1MzEgMTg4LjI2MTcxOSAyOTMuODk4NDM4IDE4Ny42MjEwOTQgMjk2LjA0Njg3NSAxODYuMzM5ODQ0IEMgMjk4LjE5NTMxMiAxODUuMDU4NTk0IDMwMC41ODU5MzggMTgzLjQ0MTQwNiAzMDMuMjI2NTYyIDE4MS40ODA0NjkgWiBNIDMyOS4xMDkzNzUgMjAwLjgxMjUgTCAzMDMuMjI2NTYyIDIwMC44MTI1IEwgMzAzLjIyNjU2MiAxOTQuMDI3MzQ0IEMgMzAxLjc5Mjk2OSAxOTUuMjM0Mzc1IDMwMC4zOTg0MzggMTk2LjM0NzY1NiAyOTkuMDQyOTY5IDE5Ny4zNjMyODEgQyAyOTcuNjg3NSAxOTguMzc4OTA2IDI5Ni4xNjAxNTYgMTk5LjI2NTYyNSAyOTQuNDY0ODQ0IDIwMC4wMTk1MzEgQyAyOTIuNzY5NTMxIDIwMC43NzM0MzggMjkwLjg2NzE4OCAyMDEuMzU1NDY5IDI4OC43NTM5MDYgMjAxLjc3MzQzOCBDIDI4Ni42NDQ1MzEgMjAyLjE4NzUgMjg0LjE1NjI1IDIwMi4zOTQ1MzEgMjgxLjI5Njg3NSAyMDIuMzk0NTMxIEMgMjc3LjM3NSAyMDIuMzk0NTMxIDI3My44NTE1NjIgMjAxLjgyODEyNSAyNzAuNzI2NTYyIDIwMC42OTkyMTkgQyAyNjcuNTk3NjU2IDE5OS41NjY0MDYgMjY0Ljk0MTQwNiAxOTguMDIzNDM4IDI2Mi43NTc4MTIgMTk2LjA2MjUgQyAyNjAuNTcwMzEyIDE5NC4xMDU0NjkgMjU4Ljg5NDUzMSAxOTEuNzg1MTU2IDI1Ny43MjY1NjIgMTg5LjEwOTM3NSBDIDI1Ni41NTg1OTQgMTg2LjQzNzUgMjU1Ljk3MjY1NiAxODMuNTE1NjI1IDI1NS45NzI2NTYgMTgwLjM1MTU2MiBDIDI1NS45NzI2NTYgMTc3LjEwOTM3NSAyNTYuNTkzNzUgMTc0LjE3MTg3NSAyNTcuODM5ODQ0IDE3MS41MzEyNSBDIDI1OS4wODIwMzEgMTY4Ljg5NDUzMSAyNjAuNzc3MzQ0IDE2Ni41MjM0MzggMjYyLjkyNTc4MSAxNjQuNDEwMTU2IEMgMjY1LjA3NDIxOSAxNjIuMzAwNzgxIDI2Ny41NzgxMjUgMTYwLjQxNzk2OSAyNzAuNDQxNDA2IDE1OC43NTc4MTIgQyAyNzMuMzA0Njg4IDE1Ny4xMDE1NjIgMjc2LjM3ODkwNiAxNTUuNTc0MjE5IDI3OS42NTYyNSAxNTQuMTc5Njg4IEMgMjgyLjkzMzU5NCAxNTIuNzg1MTU2IDI4Ni4zNDM3NSAxNTEuNTA3ODEyIDI4OS44ODY3MTkgMTUwLjMzOTg0NCBDIDI5My40MjU3ODEgMTQ5LjE3MTg3NSAyOTYuOTMzNTk0IDE0OC4wNTg1OTQgMzAwLjM5ODQzOCAxNDcuMDAzOTA2IEwgMzAzLjIyNjU2MiAxNDYuMzI0MjE5IEwgMzAzLjIyNjU2MiAxMzcuOTYwOTM4IEMgMzAzLjIyNjU2MiAxMzIuNTM1MTU2IDMwMi4xODc1IDEyOC42OTE0MDYgMzAwLjExNzE4OCAxMjYuNDI5Njg4IEMgMjk4LjA0Mjk2OSAxMjQuMTY3OTY5IDI5NS4yNzM0MzggMTIzLjAzOTA2MiAyOTEuODA4NTk0IDEyMy4wMzkwNjIgQyAyODcuNzM4MjgxIDEyMy4wMzkwNjIgMjg0LjkxMDE1NiAxMjQuMDE5NTMxIDI4My4zMjgxMjUgMTI1Ljk3NjU2MiBDIDI4MS43NDYwOTQgMTI3LjkzNzUgMjgwLjk1MzEyNSAxMzAuMzA4NTk0IDI4MC45NTMxMjUgMTMzLjA5NzY1NiBDIDI4MC45NTMxMjUgMTM0LjY3OTY4OCAyODAuNzg1MTU2IDEzNi4yMjY1NjIgMjgwLjQ0NTMxMiAxMzcuNzM0Mzc1IEMgMjgwLjEwOTM3NSAxMzkuMjQyMTg4IDI3OS41MjM0MzggMTQwLjU1ODU5NCAyNzguNjk1MzEyIDE0MS42OTE0MDYgQyAyNzcuODY3MTg4IDE0Mi44MjAzMTIgMjc2LjY3OTY4OCAxNDMuNzI2NTYyIDI3NS4xMzI4MTIgMTQ0LjQwMjM0NCBDIDI3My41ODk4NDQgMTQ1LjA4MjAzMSAyNzEuNjQ4NDM4IDE0NS40MjE4NzUgMjY5LjMxMjUgMTQ1LjQyMTg3NSBDIDI2NS42OTUzMTIgMTQ1LjQyMTg3NSAyNjIuNzU3ODEyIDE0NC4zODI4MTIgMjYwLjQ5NjA5NCAxNDIuMzEyNSBDIDI1OC4yMzQzNzUgMTQwLjIzODI4MSAyNTcuMTA1NDY5IDEzNy42MjEwOTQgMjU3LjEwNTQ2OSAxMzQuNDUzMTI1IEMgMjU3LjEwNTQ2OSAxMzEuNTE1NjI1IDI1OC4xMDE1NjIgMTI4Ljc4NTE1NiAyNjAuMDk3NjU2IDEyNi4yNjE3MTkgQyAyNjIuMDk3NjU2IDEyMy43MzQzNzUgMjY0Ljc4OTA2MiAxMjEuNTY2NDA2IDI2OC4xODM1OTQgMTE5Ljc2MTcxOSBDIDI3MS41NzQyMTkgMTE3Ljk0OTIxOSAyNzUuNDkyMTg4IDExNi41MTk1MzEgMjc5LjkzNzUgMTE1LjQ2NDg0NCBDIDI4NC4zODI4MTIgMTE0LjQxMDE1NiAyODkuMDkzNzUgMTEzLjg4MjgxMiAyOTQuMDY2NDA2IDExMy44ODI4MTIgQyAzMDAuMTcxODc1IDExMy44ODI4MTIgMzA1LjQyOTY4OCAxMTQuNDI5Njg4IDMwOS44Mzk4NDQgMTE1LjUxOTUzMSBDIDMxNC4yNDYwOTQgMTE2LjYxMzI4MSAzMTcuODgyODEyIDExOC4xNzU3ODEgMzIwLjc0NjA5NCAxMjAuMjEwOTM4IEMgMzIzLjYwOTM3NSAxMjIuMjQ2MDk0IDMyNS43MTg3NSAxMjQuNjk1MzEyIDMyNy4wNzQyMTkgMTI3LjU1ODU5NCBDIDMyOC40MzM1OTQgMTMwLjQyMTg3NSAzMjkuMTA5Mzc1IDEzMy42Mjg5MDYgMzI5LjEwOTM3NSAxMzcuMTY3OTY5IFogTSAzMjkuMTA5Mzc1IDIwMC44MTI1IiBmaWxsLW9wYWNpdHk9IjEiIGZpbGw9InJnYigwJSwgMCUsIDAlKSIgZmlsbC1ydWxlPSJub256ZXJvIi8+CjxwYXRoIGQ9Ik0gOTIuOTUzMTI1IDkxLjU4OTg0NCBDIDkyLjk1MzEyNSAxMDEuMjU3ODEyIDg1LjExNzE4OCAxMDkuMDg5ODQ0IDc1LjQ1MzEyNSAxMDkuMDg5ODQ0IEMgNjUuNzg5MDYyIDEwOS4wODk4NDQgNTcuOTUzMTI1IDEwMS4yNTc4MTIgNTcuOTUzMTI1IDkxLjU4OTg0NCBDIDU3Ljk1MzEyNSA4MS45MjU3ODEgNjUuNzg5MDYyIDc0LjA4OTg0NCA3NS40NTMxMjUgNzQuMDg5ODQ0IEMgODUuMTE3MTg4IDc0LjA4OTg0NCA5Mi45NTMxMjUgODEuOTI1NzgxIDkyLjk1MzEyNSA5MS41ODk4NDQgWiBNIDkyLjk1MzEyNSA5MS41ODk4NDQiIGZpbGwtb3BhY2l0eT0iMSIgZmlsbD0icmdiKDI1LjElLCAzOC44JSwgODQuNyUpIiBmaWxsLXJ1bGU9Im5vbnplcm8iLz4KPHBhdGggZD0iTSAyNzYuMzAwNzgxIDU1LjE3MTg3NSBDIDI3Ni4zMDA3ODEgNjQuODM1OTM4IDI2OC40NjQ4NDQgNzIuNjcxODc1IDI1OC44MDA3ODEgNzIuNjcxODc1IEMgMjQ5LjEzMjgxMiA3Mi42NzE4NzUgMjQxLjMwMDc4MSA2NC44MzU5MzggMjQxLjMwMDc4MSA1NS4xNzE4NzUgQyAyNDEuMzAwNzgxIDQ1LjUwNzgxMiAyNDkuMTMyODEyIDM3LjY3MTg3NSAyNTguODAwNzgxIDM3LjY3MTg3NSBDIDI2OC40NjQ4NDQgMzcuNjcxODc1IDI3Ni4zMDA3ODEgNDUuNTA3ODEyIDI3Ni4zMDA3ODEgNTUuMTcxODc1IFogTSAyNzYuMzAwNzgxIDU1LjE3MTg3NSIgZmlsbC1vcGFjaXR5PSIxIiBmaWxsPSJyZ2IoMjIlLCA1OS42JSwgMTQuOSUpIiBmaWxsLXJ1bGU9Im5vbnplcm8iLz4KPHBhdGggZD0iTSAyOTcuMzIwMzEyIDkxLjU4OTg0NCBDIDI5Ny4zMjAzMTIgMTAxLjI1NzgxMiAyODkuNDg0Mzc1IDEwOS4wODk4NDQgMjc5LjgyMDMxMiAxMDkuMDg5ODQ0IEMgMjcwLjE1NjI1IDEwOS4wODk4NDQgMjYyLjMyMDMxMiAxMDEuMjU3ODEyIDI2Mi4zMjAzMTIgOTEuNTg5ODQ0IEMgMjYyLjMyMDMxMiA4MS45MjU3ODEgMjcwLjE1NjI1IDc0LjA4OTg0NCAyNzkuODIwMzEyIDc0LjA4OTg0NCBDIDI4OS40ODQzNzUgNzQuMDg5ODQ0IDI5Ny4zMjAzMTIgODEuOTI1NzgxIDI5Ny4zMjAzMTIgOTEuNTg5ODQ0IFogTSAyOTcuMzIwMzEyIDkxLjU4OTg0NCIgZmlsbC1vcGFjaXR5PSIxIiBmaWxsPSJyZ2IoNTguNCUsIDM0LjUlLCA2OS44JSkiIGZpbGwtcnVsZT0ibm9uemVybyIvPgo8cGF0aCBkPSJNIDI1NS4yNzM0MzggOTEuNTg5ODQ0IEMgMjU1LjI3MzQzOCAxMDEuMjU3ODEyIDI0Ny40Mzc1IDEwOS4wODk4NDQgMjM3Ljc3MzQzOCAxMDkuMDg5ODQ0IEMgMjI4LjEwNTQ2OSAxMDkuMDg5ODQ0IDIyMC4yNzM0MzggMTAxLjI1NzgxMiAyMjAuMjczNDM4IDkxLjU4OTg0NCBDIDIyMC4yNzM0MzggODEuOTI1NzgxIDIyOC4xMDU0NjkgNzQuMDg5ODQ0IDIzNy43NzM0MzggNzQuMDg5ODQ0IEMgMjQ3LjQzNzUgNzQuMDg5ODQ0IDI1NS4yNzM0MzggODEuOTI1NzgxIDI1NS4yNzM0MzggOTEuNTg5ODQ0IFogTSAyNTUuMjczNDM4IDkxLjU4OTg0NCIgZmlsbC1vcGFjaXR5PSIxIiBmaWxsPSJyZ2IoNzkuNiUsIDIzLjUlLCAyMCUpIiBmaWxsLXJ1bGU9Im5vbnplcm8iLz4KPC9zdmc+;" parent="BHrpFycbJCAirwx-hvO8-90" vertex="1">
                    <mxGeometry x="214.82" width="76.5" height="55.25" as="geometry"/>
                </mxCell>
                <mxCell id="BHrpFycbJCAirwx-hvO8-82" value="" style="sketch=0;aspect=fixed;pointerEvents=1;shadow=0;dashed=0;html=1;strokeColor=none;labelPosition=center;verticalLabelPosition=bottom;verticalAlign=top;align=center;fillColor=#00188D;shape=mxgraph.azure.script_file;fontColor=#000000;" parent="1" vertex="1">
                    <mxGeometry x="910" y="595" width="47" height="50" as="geometry"/>
                </mxCell>
                <mxCell id="BHrpFycbJCAirwx-hvO8-92" value="" style="endArrow=none;html=1;fontFamily=Helvetica;fontSize=11;fontColor=default;align=center;strokeColor=#000000;edgeStyle=none;entryX=0;entryY=0.5;entryDx=0;entryDy=0;" parent="1" source="BHrpFycbJCAirwx-hvO8-23" target="BHrpFycbJCAirwx-hvO8-82" edge="1">
                    <mxGeometry relative="1" as="geometry">
                        <mxPoint x="887" y="620" as="sourcePoint"/>
                        <mxPoint x="1005.1800000000003" y="620" as="targetPoint"/>
                    </mxGeometry>
                </mxCell>
                <mxCell id="BHrpFycbJCAirwx-hvO8-95" value="" style="group;fontColor=#000000;" parent="1" vertex="1" connectable="0">
                    <mxGeometry x="197" y="443.5" width="210.78499999999997" height="353" as="geometry"/>
                </mxCell>
                <mxCell id="BHrpFycbJCAirwx-hvO8-5" value="User" style="sketch=0;aspect=fixed;pointerEvents=1;shadow=0;dashed=0;html=1;strokeColor=none;labelPosition=center;verticalLabelPosition=bottom;verticalAlign=top;align=center;fillColor=#00188D;shape=mxgraph.azure.user;fontColor=#000000;" parent="BHrpFycbJCAirwx-hvO8-95" vertex="1">
                    <mxGeometry x="13" y="152" width="47" height="50" as="geometry"/>
                </mxCell>
                <mxCell id="BHrpFycbJCAirwx-hvO8-7" value="Desktop" style="sketch=0;aspect=fixed;pointerEvents=1;shadow=0;dashed=0;html=1;strokeColor=none;labelPosition=center;verticalLabelPosition=bottom;verticalAlign=top;align=center;fillColor=#00188D;shape=mxgraph.azure.computer;fontColor=#000000;" parent="BHrpFycbJCAirwx-hvO8-95" vertex="1">
                    <mxGeometry x="149.22" y="152" width="55.56" height="50" as="geometry"/>
                </mxCell>
                <mxCell id="BHrpFycbJCAirwx-hvO8-16" style="endArrow=classic;startArrow=classic;html=1;fontFamily=Helvetica;fontSize=11;fontColor=default;align=center;strokeColor=#000000;edgeStyle=none;" parent="BHrpFycbJCAirwx-hvO8-95" source="BHrpFycbJCAirwx-hvO8-5" target="BHrpFycbJCAirwx-hvO8-7" edge="1">
                    <mxGeometry relative="1" as="geometry"/>
                </mxCell>
                <mxCell id="BHrpFycbJCAirwx-hvO8-17" style="endArrow=classic;startArrow=classic;html=1;fontFamily=Helvetica;fontSize=11;fontColor=default;align=center;strokeColor=#000000;edgeStyle=elbowEdgeStyle;entryX=0;entryY=0.5;entryDx=0;entryDy=0;entryPerimeter=0;" parent="BHrpFycbJCAirwx-hvO8-95" target="BHrpFycbJCAirwx-hvO8-9" edge="1">
                    <mxGeometry relative="1" as="geometry">
                        <mxPoint x="60" y="176.5" as="sourcePoint"/>
                        <mxPoint x="120" y="346.5" as="targetPoint"/>
                        <Array as="points">
                            <mxPoint x="109" y="247"/>
                        </Array>
                    </mxGeometry>
                </mxCell>
                <mxCell id="BHrpFycbJCAirwx-hvO8-68" value="Yaml/Json/Xml" style="sketch=0;aspect=fixed;pointerEvents=1;shadow=0;dashed=0;html=1;strokeColor=none;labelPosition=center;verticalLabelPosition=bottom;verticalAlign=top;align=center;fillColor=#00188D;shape=mxgraph.mscae.enterprise.document;fontColor=#000000;" parent="BHrpFycbJCAirwx-hvO8-95" vertex="1">
                    <mxGeometry x="157" width="40" height="50" as="geometry"/>
                </mxCell>
                <mxCell id="BHrpFycbJCAirwx-hvO8-69" style="endArrow=classic;startArrow=classic;html=1;fontFamily=Helvetica;fontSize=11;fontColor=default;align=center;strokeColor=#000000;edgeStyle=elbowEdgeStyle;entryX=0;entryY=0.5;entryDx=0;entryDy=0;entryPerimeter=0;" parent="BHrpFycbJCAirwx-hvO8-95" target="BHrpFycbJCAirwx-hvO8-68" edge="1">
                    <mxGeometry relative="1" as="geometry">
                        <mxPoint x="60" y="177.5" as="sourcePoint"/>
                    </mxGeometry>
                </mxCell>
                <mxCell id="BHrpFycbJCAirwx-hvO8-9" value="Mobile" style="sketch=0;aspect=fixed;pointerEvents=1;shadow=0;dashed=0;html=1;strokeColor=none;labelPosition=center;verticalLabelPosition=bottom;verticalAlign=top;align=center;fillColor=#00188D;shape=mxgraph.azure.tablet;fontColor=#000000;labelBackgroundColor=none;spacing=6;" parent="BHrpFycbJCAirwx-hvO8-95" vertex="1">
                    <mxGeometry x="143.215" y="303" width="67.57" height="50" as="geometry"/>
                </mxCell>
                <mxCell id="BHrpFycbJCAirwx-hvO8-97" value="" style="group;fontColor=#000000;" parent="1" vertex="1" connectable="0">
                    <mxGeometry x="1393" y="360" width="163" height="50" as="geometry"/>
                </mxCell>
                <mxCell id="BHrpFycbJCAirwx-hvO8-66" value="PeriLab" style="sketch=0;aspect=fixed;pointerEvents=1;shadow=0;dashed=0;html=1;strokeColor=none;labelPosition=center;verticalLabelPosition=bottom;verticalAlign=top;align=center;fillColor=#00188D;shape=mxgraph.mscae.enterprise.application_server;fontFamily=Tahoma;fontColor=#000000;" parent="BHrpFycbJCAirwx-hvO8-97" vertex="1">
                    <mxGeometry x="100" width="43" height="50" as="geometry"/>
                </mxCell>
                <mxCell id="BHrpFycbJCAirwx-hvO8-67" style="edgeStyle=none;shape=link;rounded=0;orthogonalLoop=1;jettySize=auto;html=1;exitX=1;exitY=0.5;exitDx=0;exitDy=0;exitPerimeter=0;entryX=0;entryY=0.5;entryDx=0;entryDy=0;entryPerimeter=0;strokeColor=#000000;" parent="BHrpFycbJCAirwx-hvO8-97" source="BHrpFycbJCAirwx-hvO8-43" target="BHrpFycbJCAirwx-hvO8-66" edge="1">
                    <mxGeometry relative="1" as="geometry">
                        <mxPoint x="20" y="25" as="sourcePoint"/>
                    </mxGeometry>
                </mxCell>
                <mxCell id="BHrpFycbJCAirwx-hvO8-43" value="Cluster" style="sketch=0;aspect=fixed;pointerEvents=1;shadow=0;dashed=0;html=1;strokeColor=none;labelPosition=center;verticalLabelPosition=bottom;verticalAlign=top;align=center;fillColor=#00188D;shape=mxgraph.mscae.enterprise.cluster_server;fontFamily=Tahoma;fontColor=#000000;" parent="BHrpFycbJCAirwx-hvO8-97" vertex="1">
                    <mxGeometry width="40" height="50" as="geometry"/>
                </mxCell>
                <mxCell id="oF-Cy2X0TJX1W_neIxIM-1" value="" style="sketch=0;aspect=fixed;pointerEvents=1;shadow=0;dashed=0;html=1;strokeColor=none;labelPosition=center;verticalLabelPosition=bottom;verticalAlign=top;align=center;fillColor=#00188D;shape=mxgraph.azure.script_file;fontColor=#000000;" parent="1" vertex="1">
                    <mxGeometry x="1131.68" y="360" width="47" height="50" as="geometry"/>
                </mxCell>
                <mxCell id="oF-Cy2X0TJX1W_neIxIM-2" value="" style="endArrow=none;startArrow=classic;html=1;fontFamily=Helvetica;fontSize=11;fontColor=default;align=center;strokeColor=#000000;entryX=1;entryY=0.5;entryDx=0;entryDy=0;exitX=0;exitY=0.5;exitDx=0;exitDy=0;exitPerimeter=0;entryPerimeter=0;" parent="1" source="BHrpFycbJCAirwx-hvO8-43" target="oF-Cy2X0TJX1W_neIxIM-1" edge="1">
                    <mxGeometry relative="1" as="geometry">
                        <mxPoint x="1393" y="453" as="sourcePoint"/>
                        <mxPoint x="887" y="557.5" as="targetPoint"/>
                    </mxGeometry>
                </mxCell>
                <mxCell id="5" style="edgeStyle=none;shape=link;rounded=0;orthogonalLoop=1;jettySize=auto;html=1;entryX=0;entryY=0.5;entryDx=0;entryDy=0;strokeColor=#000000;entryPerimeter=0;" parent="1" target="BHrpFycbJCAirwx-hvO8-47" edge="1">
                    <mxGeometry relative="1" as="geometry">
                        <mxPoint x="871" y="720" as="sourcePoint"/>
                        <mxPoint x="930.0000000000001" y="684.88" as="targetPoint"/>
                    </mxGeometry>
                </mxCell>
                <mxCell id="6" style="edgeStyle=none;shape=link;rounded=0;orthogonalLoop=1;jettySize=auto;html=1;strokeColor=#000000;labelBackgroundColor=default;" parent="1" source="BHrpFycbJCAirwx-hvO8-26" target="BHrpFycbJCAirwx-hvO8-47" edge="1">
                    <mxGeometry relative="1" as="geometry">
                        <mxPoint x="939.92" y="745" as="sourcePoint"/>
                        <mxPoint x="952" y="740" as="targetPoint"/>
                    </mxGeometry>
                </mxCell>
                <mxCell id="BHrpFycbJCAirwx-hvO8-47" value="&lt;font&gt;Job Volume&lt;/font&gt;" style="sketch=0;aspect=fixed;pointerEvents=1;shadow=0;dashed=0;html=1;strokeColor=none;labelPosition=center;verticalLabelPosition=top;verticalAlign=bottom;align=center;fillColor=#00188D;shape=mxgraph.mscae.enterprise.shared_folder;fontFamily=Tahoma;labelBackgroundColor=none;fontColor=#000000;labelBorderColor=none;" parent="1" vertex="1">
                    <mxGeometry x="914" y="695" width="43" height="50" as="geometry"/>
                </mxCell>
            </root>
        </mxGraphModel>
    </diagram>
</mxfile>